<svg width="212" height="41" viewBox="0 0 212 41" fill="none" xmlns="http://www.w3.org/2000/svg">
<path fill-rule="evenodd" clip-rule="evenodd" d="M158.457 16.0039C153.464 16.0039 149.434 20.0346 149.434 25.0277C149.434 30.0209 153.464 34.0516 158.457 34.0516C163.451 34.0516 167.481 30.0209 167.481 25.0277C167.481 20.0346 163.451 16.0039 158.457 16.0039ZM158.457 19.9142C161.285 19.9142 163.571 22.2003 163.571 25.0277C163.571 27.8552 161.285 30.1413 158.457 30.1413C155.63 30.1413 153.344 27.8552 153.344 25.0277C153.284 22.2003 155.63 19.9142 158.457 19.9142Z" fill="white" fill-opacity="0.92"/>
<path fill-rule="evenodd" clip-rule="evenodd" d="M105.759 16.0011C110.812 16.0011 114.001 20.2122 114.001 25.0249C114.001 29.8376 110.812 34.0488 105.759 34.0488C103.774 34.0488 101.909 33.2065 100.465 31.8229V33.6878H96.5547V9.50391H100.285V18.4074C101.789 16.9035 103.653 16.0011 105.759 16.0011ZM105.218 30.4392C108.226 30.4392 109.97 27.9125 109.97 25.0851C109.97 22.2576 108.226 19.7309 105.218 19.7309C102.21 19.7309 100.405 22.2576 100.405 25.0851C100.405 27.9125 102.21 30.4392 105.218 30.4392Z" fill="white" fill-opacity="0.92"/>
<path fill-rule="evenodd" clip-rule="evenodd" d="M77.3032 33.7487L75.3781 28.3946H63.7675L61.8424 33.7487H57.6914L66.2941 9.625H72.8515L81.4542 33.7487H77.3032ZM69.1216 13.4752L65.1511 24.6046H73.9945L70.024 13.4752H69.1216Z" fill="white" fill-opacity="0.92"/>
<path fill-rule="evenodd" clip-rule="evenodd" d="M211.999 16.3633V33.7492H208.089V20.0931H202.855V33.7492H198.945V20.0931H193.711V33.7492H189.801V16.3633H211.999Z" fill="white" fill-opacity="0.92"/>
<path fill-rule="evenodd" clip-rule="evenodd" d="M135.177 20.0925H130.545V30.0188H134.876V33.7486H126.635V20.0925H123.266V16.3627H126.635V12.0312H130.545V16.3627H135.177V20.0925Z" fill="white" fill-opacity="0.92"/>
<path fill-rule="evenodd" clip-rule="evenodd" d="M117.129 33.3883V16.3633H121.039V33.7492H117.129V33.3883Z" fill="white" fill-opacity="0.92"/>
<path d="M121.221 9.6875H116.949V14.0791H121.221V9.6875Z" fill="white" fill-opacity="0.92"/>
<path fill-rule="evenodd" clip-rule="evenodd" d="M94.1505 16.3633V20.0931H87.172V33.7492H83.2617V16.3633H94.1505Z" fill="white" fill-opacity="0.92"/>
<path fill-rule="evenodd" clip-rule="evenodd" d="M19.0113 9.68516L15.4619 19.6715H20.4551L23.3428 11.0087L26.2304 19.6715H31.2236L27.6742 9.625C24.7264 9.68516 21.8989 9.68516 19.0113 9.68516ZM32.6072 23.7623L36.1566 33.8089H30.9228L27.5539 23.7623H32.6072ZM14.0181 23.7623L10.4688 33.8089H15.7026L19.0715 23.7623H14.0181Z" fill="white" fill-opacity="0.92"/>
<path fill-rule="evenodd" clip-rule="evenodd" d="M38.6822 40.7878C43.5551 36.5165 46.6232 30.2599 46.6232 23.2815C46.6232 10.7083 36.6368 0.421112 24.1839 0L25.9887 5.05335C34.8922 6.31668 41.7503 14.017 41.7503 23.2815C41.7503 28.0942 39.8854 32.4257 36.8774 35.7344L38.6822 40.7878ZM22.4393 0C9.98638 0.421112 0 10.7083 0 23.2815C0 30.2599 3.0681 36.5165 7.94098 40.7878L9.74574 35.7344C6.7378 32.4858 4.87287 28.0942 4.87287 23.2815C4.87287 14.017 11.731 6.31668 20.6345 5.05335L22.4393 0Z" fill="white" fill-opacity="0.92"/>
<path fill-rule="evenodd" clip-rule="evenodd" d="M149.014 16.3633V20.0931H142.035V33.7492H138.125V16.3633H149.014Z" fill="white" fill-opacity="0.92"/>
<path fill-rule="evenodd" clip-rule="evenodd" d="M178.371 16.0039C173.378 16.0039 169.348 20.0346 169.348 25.0277C169.348 30.0209 173.378 34.0516 178.371 34.0516C183.365 34.0516 187.395 30.0209 187.395 25.0277C187.395 20.0346 183.365 16.0039 178.371 16.0039ZM178.371 19.9142C181.199 19.9142 183.485 22.2003 183.485 25.0277C183.485 27.8552 181.199 30.1413 178.371 30.1413C175.544 30.1413 173.258 27.8552 173.258 25.0277C173.258 22.2003 175.544 19.9142 178.371 19.9142Z" fill="white" fill-opacity="0.92"/>
</svg>
