<svg width="333" height="204" viewBox="0 0 333 204" fill="none" xmlns="http://www.w3.org/2000/svg">
<g filter="url(#filter0_d_3817_51196)">
<path fill-rule="evenodd" clip-rule="evenodd" d="M233.25 39C233.664 39 234 39.3358 234 39.75L234 42.75H237V39.75C237 39.3358 237.336 39 237.75 39C238.164 39 238.5 39.3358 238.5 39.75V42.75H238.788C241.01 42.75 243 44.3318 243 46.5C243 47.6197 242.469 48.5829 241.65 49.2528C243.349 50.1013 244.5 51.9292 244.5 54C244.5 56.856 242.31 59.25 239.515 59.25H238.5V62.25C238.5 62.6642 238.164 63 237.75 63C237.336 63 237 62.6642 237 62.25V59.25H234L234 62.25C234 62.6642 233.664 63 233.25 63C232.836 63 232.5 62.6642 232.5 62.25L232.5 59.25H231.75C231.336 59.25 231 58.9142 231 58.5C231 58.0858 231.336 57.75 231.75 57.75H232.5L232.5 44.25H231.75C231.336 44.25 231 43.9142 231 43.5C231 43.0858 231.336 42.75 231.75 42.75H232.5L232.5 39.75C232.5 39.3358 232.836 39 233.25 39ZM234 44.25L234 48.75H238.788C240.39 48.75 241.5 47.6455 241.5 46.5C241.5 45.3545 240.39 44.25 238.788 44.25H237.75H234ZM234 50.25L234 57.75H239.515C241.397 57.75 243 56.1146 243 54C243 51.8854 241.397 50.25 239.515 50.25H238.788H234Z" fill="#FEEC97"/>
</g>
<rect x="219.75" y="33.75" width="34.5" height="34.5" rx="17.25" stroke="#FEEC97" stroke-width="1.5"/>
<g filter="url(#filter1_dd_3817_51196)">
<path fill-rule="evenodd" clip-rule="evenodd" d="M130.75 83.125C130.405 83.125 130.125 83.4048 130.125 83.75C130.125 84.0952 130.405 84.375 130.75 84.375H132.625V95.625H130.75C130.405 95.625 130.125 95.9048 130.125 96.25C130.125 96.5952 130.405 96.875 130.75 96.875H133.25H137.074C140.837 96.875 143.875 93.79 143.875 90C143.875 86.21 140.837 83.125 137.074 83.125H133.25H130.75ZM133.875 84.375V95.625H137.074C140.133 95.625 142.625 93.1136 142.625 90C142.625 86.8864 140.133 84.375 137.074 84.375H133.875Z" fill="#FEEC97"/>
</g>
<rect x="122.625" y="75.625" width="28.75" height="28.75" rx="14.375" stroke="#FEEC97" stroke-width="1.25"/>
<g filter="url(#filter2_d_3817_51196)">
<path fill-rule="evenodd" clip-rule="evenodd" d="M68 29C67.4477 29 67 29.4477 67 30C67 30.5523 67.4477 31 68 31H76V36.0097C73.5861 36.0567 71.3973 36.2723 69.7328 36.6052C68.7952 36.7927 67.9717 37.0275 67.3584 37.3175C67.0543 37.4613 66.7481 37.6434 66.5042 37.8818C66.2586 38.1218 66 38.4983 66 39C66 39.5017 66.2586 39.8782 66.5042 40.1182C66.7481 40.3566 67.0543 40.5387 67.3584 40.6825C67.9717 40.9725 68.7952 41.2073 69.7328 41.3948C71.3973 41.7277 73.5861 41.9433 76 41.9903L76 53C76 53.5523 76.4477 54 77 54C77.5523 54 78 53.5523 78 53L78 41.9903C80.4139 41.9433 82.6027 41.7277 84.2672 41.3948C85.2048 41.2073 86.0283 40.9725 86.6416 40.6825C86.9457 40.5387 87.2519 40.3566 87.4958 40.1182C87.7414 39.8782 88 39.5017 88 39C88 38.4983 87.7414 38.1218 87.4958 37.8818C87.2519 37.6434 86.9457 37.4613 86.6416 37.3175C86.0283 37.0275 85.2048 36.7927 84.2672 36.6052C82.6027 36.2723 80.4139 36.0567 78 36.0097V31H86C86.5523 31 87 30.5523 87 30C87 29.4477 86.5523 29 86 29H77H68ZM76 38.0101V38.6223C76 39.1746 76.4477 39.6223 77 39.6223C77.5523 39.6223 78 39.1746 78 38.6223V38.0101C80.3103 38.0569 82.3623 38.2638 83.875 38.5664C84.5547 38.7023 85.094 38.8515 85.4877 39C85.094 39.1485 84.5547 39.2977 83.875 39.4336C82.1473 39.7792 79.7161 40 77 40C74.2839 40 71.8527 39.7792 70.125 39.4336C69.4453 39.2977 68.906 39.1485 68.5123 39C68.906 38.8515 69.4453 38.7023 70.125 38.5664C71.6377 38.2638 73.6897 38.0569 76 38.0101Z" fill="#FEEC97"/>
</g>
<rect x="54" y="18" width="46" height="46" rx="23" stroke="#FEEC97" stroke-width="2"/>
<g filter="url(#filter3_d_3817_51196)">
<path d="M173.5 135.484C172.809 135.484 172.25 136.039 172.25 136.726V150.394C172.25 151.081 172.809 151.636 173.5 151.636C174.191 151.636 174.75 151.081 174.75 150.394V136.726C174.75 136.039 174.191 135.484 173.5 135.484Z" fill="#FEEC97"/>
<path d="M213.5 134.242H178.5C177.809 134.242 177.25 134.798 177.25 135.485C177.25 136.172 177.809 136.727 178.5 136.727H213.5C214.191 136.727 214.75 136.172 214.75 135.485C214.75 134.798 214.191 134.242 213.5 134.242Z" fill="#FEEC97"/>
<path d="M166.774 136.82L145.524 145.518C144.886 145.779 144.582 146.506 144.844 147.14C145.043 147.619 145.51 147.908 146.001 147.908C146.159 147.908 146.32 147.879 146.477 147.815L167.727 139.118C168.365 138.857 168.669 138.131 168.407 137.496C168.144 136.861 167.415 136.563 166.774 136.82Z" fill="#FEEC97"/>
<path d="M225.699 114.141L206.949 92.4322C206.73 92.1781 206.417 92.0243 206.083 92.0019C205.748 91.9867 205.419 92.0932 205.167 92.315L177.492 116.848H173.499C173.161 116.848 172.824 116.916 172.514 117.05L137.515 131.958C136.596 132.349 136 133.248 136 134.242V171.516C136 172.351 136.422 173.131 137.124 173.59C137.538 173.862 138.018 174 138.5 174C138.835 174 139.169 173.934 139.486 173.799L174.013 159.09H221.001C222.381 159.09 223.5 157.979 223.5 156.606V121.818H218.841L225.579 115.88C226.091 115.43 226.142 114.655 225.699 114.141ZM218.5 154.121H173.5C173.163 154.121 172.826 154.188 172.516 154.322L141 167.747V135.88L169.921 123.561L158.918 133.315C158.704 133.504 158.577 133.755 158.528 134.018L145.527 139.304C144.888 139.564 144.582 140.289 144.842 140.925C145.041 141.405 145.508 141.696 146 141.696C146.157 141.696 146.319 141.667 146.473 141.604L173.745 130.514H213.5C214.191 130.514 214.75 129.958 214.75 129.271C214.75 128.584 214.191 128.029 213.5 128.029H211.794L218.5 122.117V154.121ZM216.699 119.333L215.15 117.822C212.831 119.301 209.706 119.051 207.657 117.055L209.54 115.15C210.519 116.105 211.942 116.338 213.143 115.862L208.451 111.282C206.131 112.759 203.003 112.51 200.954 110.51C198.907 108.51 198.603 105.409 200.048 103.075L198.5 101.565L200.382 99.6612L201.929 101.173C204.25 99.6943 207.377 99.9438 209.427 101.945L207.546 103.85C206.564 102.893 205.138 102.657 203.937 103.134L208.639 107.724C210.958 106.248 214.081 106.488 216.125 108.487C218.172 110.485 218.476 113.587 217.032 115.919L218.58 117.429L216.699 119.333Z" fill="#FEEC97"/>
<path d="M210.645 109.683L215.022 113.959C215.481 112.757 215.223 111.347 214.244 110.39C213.266 109.436 211.843 109.205 210.645 109.683Z" fill="#FEEC97"/>
<path d="M202.835 108.605C203.817 109.563 205.242 109.797 206.443 109.321L202.054 105.036C201.595 106.237 201.855 107.649 202.835 108.605Z" fill="#FEEC97"/>
</g>
<defs>
<filter id="filter0_d_3817_51196" x="211.883" y="19.8828" width="54.8115" height="65.3115" filterUnits="userSpaceOnUse" color-interpolation-filters="sRGB">
<feFlood flood-opacity="0" result="BackgroundImageFix"/>
<feColorMatrix in="SourceAlpha" type="matrix" values="0 0 0 0 0 0 0 0 0 0 0 0 0 0 0 0 0 0 127 0" result="hardAlpha"/>
<feOffset dx="1.5385" dy="1.5385"/>
<feGaussianBlur stdDeviation="10.3279"/>
<feComposite in2="hardAlpha" operator="out"/>
<feColorMatrix type="matrix" values="0 0 0 0 1 0 0 0 0 0.596078 0 0 0 0 0.392157 0 0 0 0.76 0"/>
<feBlend mode="normal" in2="BackgroundImageFix" result="effect1_dropShadow_3817_51196"/>
<feBlend mode="normal" in="SourceGraphic" in2="effect1_dropShadow_3817_51196" result="shape"/>
</filter>
<filter id="filter1_dd_3817_51196" x="120.176" y="73.1763" width="37.75" height="37.75" filterUnits="userSpaceOnUse" color-interpolation-filters="sRGB">
<feFlood flood-opacity="0" result="BackgroundImageFix"/>
<feColorMatrix in="SourceAlpha" type="matrix" values="0 0 0 0 0 0 0 0 0 0 0 0 0 0 0 0 0 0 127 0" result="hardAlpha"/>
<feOffset dx="2.05133" dy="2.05133"/>
<feGaussianBlur stdDeviation="6"/>
<feComposite in2="hardAlpha" operator="out"/>
<feColorMatrix type="matrix" values="0 0 0 0 1 0 0 0 0 0.596078 0 0 0 0 0.392157 0 0 0 0.76 0"/>
<feBlend mode="normal" in2="BackgroundImageFix" result="effect1_dropShadow_3817_51196"/>
<feColorMatrix in="SourceAlpha" type="matrix" values="0 0 0 0 0 0 0 0 0 0 0 0 0 0 0 0 0 0 127 0" result="hardAlpha"/>
<feOffset dy="4"/>
<feGaussianBlur stdDeviation="2"/>
<feComposite in2="hardAlpha" operator="out"/>
<feColorMatrix type="matrix" values="0 0 0 0 0 0 0 0 0 0 0 0 0 0 0 0 0 0 0.25 0"/>
<feBlend mode="normal" in2="effect1_dropShadow_3817_51196" result="effect2_dropShadow_3817_51196"/>
<feBlend mode="normal" in="SourceGraphic" in2="effect2_dropShadow_3817_51196" result="shape"/>
</filter>
<filter id="filter2_d_3817_51196" x="40.5103" y="3.51035" width="77.082" height="80.082" filterUnits="userSpaceOnUse" color-interpolation-filters="sRGB">
<feFlood flood-opacity="0" result="BackgroundImageFix"/>
<feColorMatrix in="SourceAlpha" type="matrix" values="0 0 0 0 0 0 0 0 0 0 0 0 0 0 0 0 0 0 127 0" result="hardAlpha"/>
<feOffset dx="2.05133" dy="2.05133"/>
<feGaussianBlur stdDeviation="13.7705"/>
<feComposite in2="hardAlpha" operator="out"/>
<feColorMatrix type="matrix" values="0 0 0 0 1 0 0 0 0 0.596078 0 0 0 0 0.392157 0 0 0 0.76 0"/>
<feBlend mode="normal" in2="BackgroundImageFix" result="effect1_dropShadow_3817_51196"/>
<feBlend mode="normal" in="SourceGraphic" in2="effect1_dropShadow_3817_51196" result="shape"/>
</filter>
<filter id="filter3_d_3817_51196" x="110.51" y="66.5103" width="145.082" height="137.082" filterUnits="userSpaceOnUse" color-interpolation-filters="sRGB">
<feFlood flood-opacity="0" result="BackgroundImageFix"/>
<feColorMatrix in="SourceAlpha" type="matrix" values="0 0 0 0 0 0 0 0 0 0 0 0 0 0 0 0 0 0 127 0" result="hardAlpha"/>
<feOffset dx="2.05133" dy="2.05133"/>
<feGaussianBlur stdDeviation="13.7705"/>
<feComposite in2="hardAlpha" operator="out"/>
<feColorMatrix type="matrix" values="0 0 0 0 1 0 0 0 0 0.596078 0 0 0 0 0.392157 0 0 0 0.76 0"/>
<feBlend mode="normal" in2="BackgroundImageFix" result="effect1_dropShadow_3817_51196"/>
<feBlend mode="normal" in="SourceGraphic" in2="effect1_dropShadow_3817_51196" result="shape"/>
</filter>
</defs>
</svg>
