<svg width="483" height="483" viewBox="0 0 483 483" fill="none" xmlns="http://www.w3.org/2000/svg">
<g opacity="0.76" filter="url(#filter0_d_3902_49766)">
<path d="M318.594 258.095L316.31 266.62C309.791 290.949 290.788 309.952 266.459 316.471L257.934 318.755C233.605 325.274 207.646 318.318 189.836 300.508L183.596 294.268C165.786 276.458 158.83 250.499 165.349 226.17L167.633 217.645C174.152 193.316 193.155 174.313 217.484 167.794L226.009 165.51C250.338 158.991 276.297 165.947 294.107 183.757L300.348 189.997C318.158 207.807 325.113 233.766 318.594 258.095Z" stroke="#FEEC97" stroke-width="3" shape-rendering="crispEdges"/>
</g>
<g opacity="0.76" filter="url(#filter1_d_3902_49766)">
<path d="M321.709 371.56L237.067 394.24C212.738 400.759 186.779 393.803 168.969 375.993L107.007 314.031C89.197 296.221 82.2413 270.262 88.7602 245.933L111.44 161.291C117.959 136.962 136.962 117.959 161.291 111.44L245.933 88.7602C270.262 82.2413 296.221 89.1969 314.031 107.007L375.993 168.969C393.803 186.779 400.759 212.738 394.24 237.067L371.56 321.709C365.041 346.038 346.038 365.041 321.709 371.56Z" stroke="#FEEC97" stroke-width="3" shape-rendering="crispEdges"/>
</g>
<g opacity="0.76" filter="url(#filter2_d_3902_49766)">
<path d="M318.594 258.095L316.31 266.62C309.791 290.949 290.788 309.952 266.459 316.471L257.934 318.755C233.605 325.274 207.646 318.318 189.836 300.508L183.596 294.268C165.786 276.458 158.83 250.499 165.349 226.17L167.633 217.645C174.152 193.316 193.155 174.313 217.484 167.794L226.009 165.51C250.338 158.991 276.297 165.947 294.107 183.757L300.348 189.997C318.158 207.807 325.113 233.766 318.594 258.095Z" stroke="#FEEC97" stroke-width="3" shape-rendering="crispEdges"/>
</g>
<g opacity="0.76" filter="url(#filter3_d_3902_49766)">
<path d="M321.709 371.56L237.067 394.24C212.738 400.759 186.779 393.803 168.969 375.993L107.007 314.031C89.197 296.221 82.2413 270.262 88.7602 245.933L111.44 161.291C117.959 136.962 136.962 117.959 161.291 111.44L245.933 88.7602C270.262 82.2413 296.221 89.1969 314.031 107.007L375.993 168.969C393.803 186.779 400.759 212.738 394.24 237.067L371.56 321.709C365.041 346.038 346.038 365.041 321.709 371.56Z" stroke="#FEEC97" stroke-width="3" shape-rendering="crispEdges"/>
</g>
<defs>
<filter id="filter0_d_3902_49766" x="141.445" y="141.606" width="201.055" height="201.053" filterUnits="userSpaceOnUse" color-interpolation-filters="sRGB">
<feFlood flood-opacity="0" result="BackgroundImageFix"/>
<feColorMatrix in="SourceAlpha" type="matrix" values="0 0 0 0 0 0 0 0 0 0 0 0 0 0 0 0 0 0 127 0" result="hardAlpha"/>
<feOffset/>
<feGaussianBlur stdDeviation="10"/>
<feComposite in2="hardAlpha" operator="out"/>
<feColorMatrix type="matrix" values="0 0 0 0 0.996078 0 0 0 0 0.92549 0 0 0 0 0.592157 0 0 0 1 0"/>
<feBlend mode="normal" in2="BackgroundImageFix" result="effect1_dropShadow_3902_49766"/>
<feBlend mode="normal" in="SourceGraphic" in2="effect1_dropShadow_3902_49766" result="shape"/>
</filter>
<filter id="filter1_d_3902_49766" x="64.8555" y="64.8564" width="353.289" height="353.287" filterUnits="userSpaceOnUse" color-interpolation-filters="sRGB">
<feFlood flood-opacity="0" result="BackgroundImageFix"/>
<feColorMatrix in="SourceAlpha" type="matrix" values="0 0 0 0 0 0 0 0 0 0 0 0 0 0 0 0 0 0 127 0" result="hardAlpha"/>
<feOffset/>
<feGaussianBlur stdDeviation="10"/>
<feComposite in2="hardAlpha" operator="out"/>
<feColorMatrix type="matrix" values="0 0 0 0 0.996078 0 0 0 0 0.92549 0 0 0 0 0.592157 0 0 0 1 0"/>
<feBlend mode="normal" in2="BackgroundImageFix" result="effect1_dropShadow_3902_49766"/>
<feBlend mode="normal" in="SourceGraphic" in2="effect1_dropShadow_3902_49766" result="shape"/>
</filter>
<filter id="filter2_d_3902_49766" x="141.445" y="141.606" width="201.055" height="201.053" filterUnits="userSpaceOnUse" color-interpolation-filters="sRGB">
<feFlood flood-opacity="0" result="BackgroundImageFix"/>
<feColorMatrix in="SourceAlpha" type="matrix" values="0 0 0 0 0 0 0 0 0 0 0 0 0 0 0 0 0 0 127 0" result="hardAlpha"/>
<feOffset/>
<feGaussianBlur stdDeviation="10"/>
<feComposite in2="hardAlpha" operator="out"/>
<feColorMatrix type="matrix" values="0 0 0 0 0.996078 0 0 0 0 0.92549 0 0 0 0 0.592157 0 0 0 1 0"/>
<feBlend mode="normal" in2="BackgroundImageFix" result="effect1_dropShadow_3902_49766"/>
<feBlend mode="normal" in="SourceGraphic" in2="effect1_dropShadow_3902_49766" result="shape"/>
</filter>
<filter id="filter3_d_3902_49766" x="64.8555" y="64.8564" width="353.289" height="353.287" filterUnits="userSpaceOnUse" color-interpolation-filters="sRGB">
<feFlood flood-opacity="0" result="BackgroundImageFix"/>
<feColorMatrix in="SourceAlpha" type="matrix" values="0 0 0 0 0 0 0 0 0 0 0 0 0 0 0 0 0 0 127 0" result="hardAlpha"/>
<feOffset/>
<feGaussianBlur stdDeviation="10"/>
<feComposite in2="hardAlpha" operator="out"/>
<feColorMatrix type="matrix" values="0 0 0 0 0.996078 0 0 0 0 0.92549 0 0 0 0 0.592157 0 0 0 1 0"/>
<feBlend mode="normal" in2="BackgroundImageFix" result="effect1_dropShadow_3902_49766"/>
<feBlend mode="normal" in="SourceGraphic" in2="effect1_dropShadow_3902_49766" result="shape"/>
</filter>
</defs>
</svg>
