<svg width="379" height="214" viewBox="0 0 379 214" fill="none" xmlns="http://www.w3.org/2000/svg">
<g filter="url(#filter0_d_3806_50097)">
<path fill-rule="evenodd" clip-rule="evenodd" d="M336.863 40.3268C336.658 40.9671 336.427 41.5957 336.171 42.2114L336.172 42.2122C346.293 46.9911 352.518 53.2656 354.529 60.7725C356.541 68.2794 354.287 76.8257 347.912 86.0245C344.231 91.3358 339.227 96.7842 333.034 102.256L334.568 103.569C351.605 88.4534 359.953 73.2873 356.461 60.2548C354.227 51.9182 347.361 45.248 336.863 40.3268ZM317.617 114.236C321.172 111.772 324.504 109.297 327.6 106.819L329.147 108.143C302.051 129.93 257.491 151.151 204.967 165.225C202.957 165.764 200.951 166.288 198.951 166.797L194.732 165.791C197.956 164.997 201.196 164.165 204.45 163.293C250.566 150.936 290.436 133.069 317.617 114.236ZM179.326 169.314C156.858 174.059 135.417 176.858 115.989 177.8C115.967 178.477 115.916 179.147 115.839 179.809C136.632 178.817 159.693 175.709 183.83 170.388L179.326 169.314ZM179.393 43.3717C177.195 43.9281 174.989 44.5025 172.779 45.0949C154.759 49.9233 137.677 55.593 121.915 61.8382C122.114 62.4758 122.287 63.1249 122.434 63.7841C138.175 57.5366 155.258 51.8601 173.296 47.0268C176.78 46.0933 180.248 45.205 183.698 44.3613L179.393 43.3717ZM290.127 30.5319C263.216 29.0438 230.191 32.0078 194.817 39.7345L199.428 40.7944C233.071 33.7667 264.372 31.1119 290.007 32.5282C290.019 31.8556 290.06 31.1898 290.127 30.5319ZM78.8816 82.0884C67.2 88.6345 56.9553 95.4409 48.444 102.302L50.0103 103.609C53.1445 101.096 56.5217 98.5836 60.1289 96.0842C66.1666 91.9007 72.8304 87.7648 80.0498 83.7265C79.6383 83.1977 79.2485 82.6512 78.8816 82.0884ZM21.2848 150.065C17.8036 137.073 26.0892 121.961 43.0188 106.892L44.5717 108.188C38.443 113.618 33.4869 119.024 29.8339 124.295C23.4589 133.494 21.2052 142.041 23.2166 149.547C25.2281 157.054 31.453 163.329 41.5734 168.108C48.6946 171.47 57.6193 174.027 68.0355 175.72C68.0132 176.144 68.002 176.571 68.002 177C68.002 177.248 68.0057 177.496 68.0132 177.743C42.3067 173.615 25.0866 164.254 21.2848 150.065Z" fill="#FF67FF"/>
</g>
<g filter="url(#filter1_d_3806_50097)">
<path fill-rule="evenodd" clip-rule="evenodd" d="M335.981 167.918C346.101 163.139 352.326 156.864 354.338 149.358C356.349 141.851 354.095 133.304 347.72 124.106C341.352 114.916 331.023 105.316 317.425 95.8944C290.244 77.0608 250.374 59.1937 204.258 46.837C158.142 34.4802 114.68 30.0183 81.7235 32.7383C65.2363 34.099 51.4917 37.2484 41.3817 42.0224C31.2614 46.8013 25.0364 53.0758 23.025 60.5827C21.0135 68.0896 23.2672 76.6359 29.6422 85.8347C36.0107 95.0241 46.3393 104.624 59.9372 114.046C87.118 132.879 126.988 150.747 173.105 163.103C219.221 175.46 262.683 179.922 295.639 177.202C312.126 175.841 325.871 172.692 335.981 167.918ZM172.587 165.035C265.143 189.836 347.381 183.048 356.269 149.875C365.158 116.702 297.332 69.7055 204.776 44.9051C112.219 20.1047 29.9818 26.892 21.0931 60.065C12.2044 93.238 80.0305 140.235 172.587 165.035Z" fill="#FF67FF"/>
</g>
<g filter="url(#filter2_d_3806_50097)">
<path fill-rule="evenodd" clip-rule="evenodd" d="M86.998 162C87.5503 162 87.998 162.448 87.998 163L87.998 193C87.998 193.552 87.5503 194 86.998 194C86.4458 194 85.998 193.552 85.998 193L85.998 163C85.998 162.448 86.4458 162 86.998 162Z" fill="#FF67FF"/>
</g>
<g filter="url(#filter3_d_3806_50097)">
<path fill-rule="evenodd" clip-rule="evenodd" d="M92.998 188C93.5503 188 93.998 188.448 93.998 189L93.998 193C93.998 193.552 93.5503 194 92.998 194C92.4458 194 91.998 193.552 91.998 193L91.998 189C91.998 188.448 92.4458 188 92.998 188Z" fill="#FF67FF"/>
</g>
<g filter="url(#filter4_d_3806_50097)">
<path fill-rule="evenodd" clip-rule="evenodd" d="M92.998 162C93.5503 162 93.998 162.448 93.998 163L93.998 168C93.998 168.552 93.5503 169 92.998 169C92.4458 169 91.998 168.552 91.998 168L91.998 163C91.998 162.448 92.4458 162 92.998 162Z" fill="#FF67FF"/>
</g>
<g filter="url(#filter5_d_3806_50097)">
<path fill-rule="evenodd" clip-rule="evenodd" d="M86.2857 176C86.2857 175.448 86.7334 175 87.2857 175H95.3529C99.0803 175 102 178.192 102 182C102 185.808 99.0803 189 95.3529 189H85C84.4477 189 84 188.552 84 188C84 187.448 84.4477 187 85 187H95.3529C97.8632 187 100 184.819 100 182C100 179.181 97.8632 177 95.3529 177H87.2857C86.7334 177 86.2857 176.552 86.2857 176Z" fill="#FF67FF"/>
</g>
<g filter="url(#filter6_d_3806_50097)">
<path fill-rule="evenodd" clip-rule="evenodd" d="M84 168C84 167.448 84.4477 167 85 167H94.3846C97.3468 167 100 169.109 100 172C100 174.891 97.3468 177 94.3846 177H87.3333C86.781 177 86.3333 176.552 86.3333 176C86.3333 175.448 86.781 175 87.3333 175H94.3846C96.5205 175 98 173.527 98 172C98 170.473 96.5205 169 94.3846 169H85C84.4477 169 84 168.552 84 168Z" fill="#FF67FF"/>
</g>
<g filter="url(#filter7_d_3806_50097)">
<path fill-rule="evenodd" clip-rule="evenodd" d="M101 53.0001C101.348 53.0001 101.671 53.1812 101.853 53.4783L110.202 67.1292C110.35 67.3699 110.388 67.6616 110.309 67.9323C110.229 68.2031 110.039 68.4277 109.785 68.5508L101.436 72.5982C101.161 72.7318 100.839 72.7318 100.564 72.5982L92.2147 68.5508C91.9608 68.4277 91.7707 68.2031 91.6913 67.9323C91.6119 67.6616 91.6506 67.3699 91.7978 67.1292L100.147 53.4783C100.329 53.1812 100.652 53.0001 101 53.0001ZM101 55.9166L94.0793 67.2321L101 70.5871L107.921 67.2321L101 55.9166Z" fill="#FF67FF"/>
</g>
<g filter="url(#filter8_d_3806_50097)">
<path fill-rule="evenodd" clip-rule="evenodd" d="M101 86.1007C100.664 86.1007 100.35 85.9319 100.165 85.6515L91.8161 73.0006C91.5677 72.6241 91.602 72.128 91.8999 71.7893C92.1978 71.4506 92.6855 71.3533 93.0906 71.5517L101 75.4254L108.909 71.5517C109.314 71.3533 109.802 71.4506 110.1 71.7893C110.398 72.128 110.432 72.6241 110.184 73.0006L101.835 85.6515C101.65 85.9319 101.336 86.1007 101 86.1007ZM101 83.2852L106.493 74.9621L101.44 77.4369C101.162 77.5728 100.838 77.5728 100.56 77.4369L95.507 74.9621L101 83.2852Z" fill="#FF67FF"/>
</g>
<g filter="url(#filter9_d_3806_50097)">
<path fill-rule="evenodd" clip-rule="evenodd" d="M303.299 23.4195C303.48 23.1948 303.769 23.0866 304.054 23.1373L322.242 26.3812C322.395 26.4085 322.536 26.48 322.648 26.587L326.627 30.3715C326.933 30.6627 326.957 31.1428 326.681 31.4626L313.608 46.6008C313.428 46.809 313.153 46.909 312.881 46.8647C312.61 46.8205 312.381 46.6384 312.276 46.3838L303.182 24.2172C303.073 23.95 303.117 23.6443 303.299 23.4195ZM305.809 26.4485L312.6 43.0006L313.873 32.9078L305.809 26.4485ZM315.424 33.2655L314.122 43.5828L324.101 32.0274L315.424 33.2655ZM324.352 30.3923L317.737 31.3361L322.036 28.1901L324.352 30.3923ZM320.141 27.6149L306.835 25.2417L314.736 31.5702L320.141 27.6149Z" fill="#FF67FF"/>
</g>
<g filter="url(#filter10_d_3806_50097)">
<path fill-rule="evenodd" clip-rule="evenodd" d="M214.087 77.8334C210.957 77.8334 208.42 80.3704 208.42 83.5C208.42 86.6297 210.957 89.1667 214.087 89.1667C217.216 89.1667 219.753 86.6297 219.753 83.5C219.753 80.3704 217.216 77.8334 214.087 77.8334ZM205.42 83.5C205.42 78.7136 209.3 74.8334 214.087 74.8334C218.873 74.8334 222.753 78.7136 222.753 83.5C222.753 88.2865 218.873 92.1667 214.087 92.1667C211.772 92.1667 209.669 91.259 208.114 89.7801C208.04 89.8772 207.954 89.9668 207.854 90.0463L198.896 97.213C198.249 97.7305 197.305 97.6256 196.788 96.9787C196.27 96.3319 196.375 95.3879 197.022 94.8704L205.98 87.7037C206.105 87.604 206.241 87.5274 206.382 87.4733C205.767 86.2831 205.42 84.9321 205.42 83.5ZM214.087 120.833C210.957 120.833 208.42 123.37 208.42 126.5C208.42 129.63 210.957 132.167 214.087 132.167C217.216 132.167 219.753 129.63 219.753 126.5C219.753 123.37 217.216 120.833 214.087 120.833ZM205.42 126.5C205.42 125.068 205.767 123.717 206.382 122.527C206.241 122.473 206.105 122.396 205.98 122.296L197.022 115.13C196.375 114.612 196.27 113.668 196.788 113.021C197.305 112.374 198.249 112.27 198.896 112.787L207.854 119.954C207.954 120.033 208.04 120.123 208.114 120.22C209.669 118.741 211.772 117.833 214.087 117.833C218.873 117.833 222.753 121.714 222.753 126.5C222.753 131.286 218.873 135.167 214.087 135.167C209.3 135.167 205.42 131.286 205.42 126.5ZM208.42 105C208.42 101.87 210.957 99.3334 214.087 99.3334C217.216 99.3334 219.753 101.87 219.753 105C219.753 108.13 217.216 110.667 214.087 110.667C210.957 110.667 208.42 108.13 208.42 105ZM214.087 96.3334C209.812 96.3334 206.26 99.4285 205.549 103.5H197.959C197.131 103.5 196.459 104.172 196.459 105C196.459 105.828 197.131 106.5 197.959 106.5H205.549C206.26 110.572 209.812 113.667 214.087 113.667C218.873 113.667 222.753 109.786 222.753 105C222.753 100.214 218.873 96.3334 214.087 96.3334Z" fill="#FF67FF"/>
<path fill-rule="evenodd" clip-rule="evenodd" d="M172.584 121.381C172.584 121.151 172.532 120.933 172.44 120.738C175.168 120.354 177.574 118.827 179.4 116.647C179.932 116.012 179.849 115.066 179.214 114.534C178.579 114.002 177.633 114.085 177.101 114.72C175.421 116.725 173.304 117.833 171.084 117.833C168.693 117.833 166.415 116.545 164.683 114.235C162.95 111.925 161.834 108.665 161.834 105C161.834 101.335 162.95 98.075 164.683 95.7648C166.049 93.9434 167.754 92.7571 169.587 92.3369C169.585 92.4619 169.584 92.5877 169.584 92.7143C169.584 93.5427 170.256 94.2143 171.084 94.2143C171.912 94.2143 172.584 93.5427 172.584 92.7143C172.584 88.3678 173.933 85.3781 175.776 83.2783C177.644 81.1494 180.108 79.8362 182.463 79.0323C183.786 78.5807 184.985 78.9079 185.901 79.717C186.847 80.5521 187.501 81.9246 187.501 83.5V126.5C187.501 129.746 184.931 131.921 182.293 131.239C179.899 130.621 177.438 129.62 175.601 128.041C173.814 126.505 172.584 124.401 172.584 121.381Z" fill="#FF67FF"/>
</g>
<defs>
<filter id="filter0_d_3806_50097" x="0.501953" y="10.1603" width="376.742" height="189.649" filterUnits="userSpaceOnUse" color-interpolation-filters="sRGB">
<feFlood flood-opacity="0" result="BackgroundImageFix"/>
<feColorMatrix in="SourceAlpha" type="matrix" values="0 0 0 0 0 0 0 0 0 0 0 0 0 0 0 0 0 0 127 0" result="hardAlpha"/>
<feOffset/>
<feGaussianBlur stdDeviation="10"/>
<feComposite in2="hardAlpha" operator="out"/>
<feColorMatrix type="matrix" values="0 0 0 0 1 0 0 0 0 0.403922 0 0 0 0 1 0 0 0 1 0"/>
<feBlend mode="normal" in2="BackgroundImageFix" result="effect1_dropShadow_3806_50097"/>
<feBlend mode="normal" in="SourceGraphic" in2="effect1_dropShadow_3806_50097" result="shape"/>
</filter>
<filter id="filter1_d_3806_50097" x="2.09813" y="11.758" width="376.742" height="189.999" filterUnits="userSpaceOnUse" color-interpolation-filters="sRGB">
<feFlood flood-opacity="0" result="BackgroundImageFix"/>
<feColorMatrix in="SourceAlpha" type="matrix" values="0 0 0 0 0 0 0 0 0 0 0 0 0 0 0 0 0 0 127 0" result="hardAlpha"/>
<feOffset dx="1.78759" dy="1.78759"/>
<feGaussianBlur stdDeviation="10"/>
<feComposite in2="hardAlpha" operator="out"/>
<feColorMatrix type="matrix" values="0 0 0 0 1 0 0 0 0 0 0 0 0 0 1 0 0 0 0.76 0"/>
<feBlend mode="normal" in2="BackgroundImageFix" result="effect1_dropShadow_3806_50097"/>
<feBlend mode="normal" in="SourceGraphic" in2="effect1_dropShadow_3806_50097" result="shape"/>
</filter>
<filter id="filter2_d_3806_50097" x="65.998" y="142" width="42" height="72" filterUnits="userSpaceOnUse" color-interpolation-filters="sRGB">
<feFlood flood-opacity="0" result="BackgroundImageFix"/>
<feColorMatrix in="SourceAlpha" type="matrix" values="0 0 0 0 0 0 0 0 0 0 0 0 0 0 0 0 0 0 127 0" result="hardAlpha"/>
<feOffset/>
<feGaussianBlur stdDeviation="10"/>
<feComposite in2="hardAlpha" operator="out"/>
<feColorMatrix type="matrix" values="0 0 0 0 1 0 0 0 0 0.403922 0 0 0 0 1 0 0 0 1 0"/>
<feBlend mode="normal" in2="BackgroundImageFix" result="effect1_dropShadow_3806_50097"/>
<feBlend mode="normal" in="SourceGraphic" in2="effect1_dropShadow_3806_50097" result="shape"/>
</filter>
<filter id="filter3_d_3806_50097" x="71.998" y="168" width="42" height="46" filterUnits="userSpaceOnUse" color-interpolation-filters="sRGB">
<feFlood flood-opacity="0" result="BackgroundImageFix"/>
<feColorMatrix in="SourceAlpha" type="matrix" values="0 0 0 0 0 0 0 0 0 0 0 0 0 0 0 0 0 0 127 0" result="hardAlpha"/>
<feOffset/>
<feGaussianBlur stdDeviation="10"/>
<feComposite in2="hardAlpha" operator="out"/>
<feColorMatrix type="matrix" values="0 0 0 0 1 0 0 0 0 0.403922 0 0 0 0 1 0 0 0 1 0"/>
<feBlend mode="normal" in2="BackgroundImageFix" result="effect1_dropShadow_3806_50097"/>
<feBlend mode="normal" in="SourceGraphic" in2="effect1_dropShadow_3806_50097" result="shape"/>
</filter>
<filter id="filter4_d_3806_50097" x="71.998" y="142" width="42" height="47" filterUnits="userSpaceOnUse" color-interpolation-filters="sRGB">
<feFlood flood-opacity="0" result="BackgroundImageFix"/>
<feColorMatrix in="SourceAlpha" type="matrix" values="0 0 0 0 0 0 0 0 0 0 0 0 0 0 0 0 0 0 127 0" result="hardAlpha"/>
<feOffset/>
<feGaussianBlur stdDeviation="10"/>
<feComposite in2="hardAlpha" operator="out"/>
<feColorMatrix type="matrix" values="0 0 0 0 1 0 0 0 0 0.403922 0 0 0 0 1 0 0 0 1 0"/>
<feBlend mode="normal" in2="BackgroundImageFix" result="effect1_dropShadow_3806_50097"/>
<feBlend mode="normal" in="SourceGraphic" in2="effect1_dropShadow_3806_50097" result="shape"/>
</filter>
<filter id="filter5_d_3806_50097" x="64" y="155" width="58" height="54" filterUnits="userSpaceOnUse" color-interpolation-filters="sRGB">
<feFlood flood-opacity="0" result="BackgroundImageFix"/>
<feColorMatrix in="SourceAlpha" type="matrix" values="0 0 0 0 0 0 0 0 0 0 0 0 0 0 0 0 0 0 127 0" result="hardAlpha"/>
<feOffset/>
<feGaussianBlur stdDeviation="10"/>
<feComposite in2="hardAlpha" operator="out"/>
<feColorMatrix type="matrix" values="0 0 0 0 1 0 0 0 0 0.403922 0 0 0 0 1 0 0 0 1 0"/>
<feBlend mode="normal" in2="BackgroundImageFix" result="effect1_dropShadow_3806_50097"/>
<feBlend mode="normal" in="SourceGraphic" in2="effect1_dropShadow_3806_50097" result="shape"/>
</filter>
<filter id="filter6_d_3806_50097" x="64" y="147" width="56" height="50" filterUnits="userSpaceOnUse" color-interpolation-filters="sRGB">
<feFlood flood-opacity="0" result="BackgroundImageFix"/>
<feColorMatrix in="SourceAlpha" type="matrix" values="0 0 0 0 0 0 0 0 0 0 0 0 0 0 0 0 0 0 127 0" result="hardAlpha"/>
<feOffset/>
<feGaussianBlur stdDeviation="10"/>
<feComposite in2="hardAlpha" operator="out"/>
<feColorMatrix type="matrix" values="0 0 0 0 1 0 0 0 0 0.403922 0 0 0 0 1 0 0 0 1 0"/>
<feBlend mode="normal" in2="BackgroundImageFix" result="effect1_dropShadow_3806_50097"/>
<feBlend mode="normal" in="SourceGraphic" in2="effect1_dropShadow_3806_50097" result="shape"/>
</filter>
<filter id="filter7_d_3806_50097" x="71.6504" y="33" width="58.6992" height="59.6984" filterUnits="userSpaceOnUse" color-interpolation-filters="sRGB">
<feFlood flood-opacity="0" result="BackgroundImageFix"/>
<feColorMatrix in="SourceAlpha" type="matrix" values="0 0 0 0 0 0 0 0 0 0 0 0 0 0 0 0 0 0 127 0" result="hardAlpha"/>
<feOffset/>
<feGaussianBlur stdDeviation="10"/>
<feComposite in2="hardAlpha" operator="out"/>
<feColorMatrix type="matrix" values="0 0 0 0 1 0 0 0 0 0.403922 0 0 0 0 1 0 0 0 1 0"/>
<feBlend mode="normal" in2="BackgroundImageFix" result="effect1_dropShadow_3806_50097"/>
<feBlend mode="normal" in="SourceGraphic" in2="effect1_dropShadow_3806_50097" result="shape"/>
</filter>
<filter id="filter8_d_3806_50097" x="71.6504" y="51.4497" width="58.6992" height="54.651" filterUnits="userSpaceOnUse" color-interpolation-filters="sRGB">
<feFlood flood-opacity="0" result="BackgroundImageFix"/>
<feColorMatrix in="SourceAlpha" type="matrix" values="0 0 0 0 0 0 0 0 0 0 0 0 0 0 0 0 0 0 127 0" result="hardAlpha"/>
<feOffset/>
<feGaussianBlur stdDeviation="10"/>
<feComposite in2="hardAlpha" operator="out"/>
<feColorMatrix type="matrix" values="0 0 0 0 1 0 0 0 0 0.403922 0 0 0 0 1 0 0 0 1 0"/>
<feBlend mode="normal" in2="BackgroundImageFix" result="effect1_dropShadow_3806_50097"/>
<feBlend mode="normal" in="SourceGraphic" in2="effect1_dropShadow_3806_50097" result="shape"/>
</filter>
<filter id="filter9_d_3806_50097" x="283.123" y="3.125" width="63.75" height="63.75" filterUnits="userSpaceOnUse" color-interpolation-filters="sRGB">
<feFlood flood-opacity="0" result="BackgroundImageFix"/>
<feColorMatrix in="SourceAlpha" type="matrix" values="0 0 0 0 0 0 0 0 0 0 0 0 0 0 0 0 0 0 127 0" result="hardAlpha"/>
<feOffset/>
<feGaussianBlur stdDeviation="10"/>
<feComposite in2="hardAlpha" operator="out"/>
<feColorMatrix type="matrix" values="0 0 0 0 1 0 0 0 0 0.403922 0 0 0 0 1 0 0 0 1 0"/>
<feBlend mode="normal" in2="BackgroundImageFix" result="effect1_dropShadow_3806_50097"/>
<feBlend mode="normal" in="SourceGraphic" in2="effect1_dropShadow_3806_50097" result="shape"/>
</filter>
<filter id="filter10_d_3806_50097" x="103.1" y="19.0979" width="175.379" height="175.379" filterUnits="userSpaceOnUse" color-interpolation-filters="sRGB">
<feFlood flood-opacity="0" result="BackgroundImageFix"/>
<feColorMatrix in="SourceAlpha" type="matrix" values="0 0 0 0 0 0 0 0 0 0 0 0 0 0 0 0 0 0 127 0" result="hardAlpha"/>
<feOffset dx="1.78759" dy="1.78759"/>
<feGaussianBlur stdDeviation="22.3448"/>
<feComposite in2="hardAlpha" operator="out"/>
<feColorMatrix type="matrix" values="0 0 0 0 1 0 0 0 0 0 0 0 0 0 1 0 0 0 1 0"/>
<feBlend mode="normal" in2="BackgroundImageFix" result="effect1_dropShadow_3806_50097"/>
<feBlend mode="normal" in="SourceGraphic" in2="effect1_dropShadow_3806_50097" result="shape"/>
</filter>
</defs>
</svg>
