<svg width="359" height="261" viewBox="0 0 359 261" fill="none" xmlns="http://www.w3.org/2000/svg">
<g filter="url(#filter0_d_3806_50168)">
<path d="M318.472 113.53C317.724 113.189 317.031 112.918 316.446 112.715C315.304 112.318 314.038 112.618 313.183 113.472L309.98 116.675C311.008 117.086 312.245 117.658 313.577 118.425L318.472 113.53Z" fill="#6CFFA7"/>
<path d="M328.63 124.773C328.447 124.081 328.213 123.437 327.958 122.815L323.07 127.703C323.673 128.718 324.227 129.815 324.719 131L327.829 127.856C328.63 127.047 328.921 125.873 328.63 124.773Z" fill="#6CFFA7"/>
<path d="M308.854 117.806L298.925 127.734H293.416L293.462 127.772C294.61 128.694 295.137 130.162 294.838 131.603L291.736 146.579C291.593 147.274 291.147 147.857 290.514 148.177C289.881 148.497 289.148 148.512 288.503 148.217C286.339 147.226 284.862 145.138 284.647 142.768L283.987 135.458C283.957 135.122 283.749 134.852 283.431 134.737C283.115 134.622 282.782 134.696 282.542 134.935L274.668 142.809L269.744 147.733L269.273 148.204C269.131 148.346 268.981 148.477 268.825 148.601L267.822 149.605C266.69 150.737 266.69 152.573 267.822 153.706C268.954 154.838 270.79 154.838 271.923 153.706L274.228 151.4L274.229 151.4L275.079 150.551C275.366 150.264 275.83 150.264 276.117 150.551C276.404 150.837 276.404 151.302 276.117 151.589L275.371 152.335L275.379 152.341L273.352 154.368C272.22 155.5 272.22 157.336 273.352 158.468C274.482 159.598 276.311 159.6 277.444 158.475L279.89 156.03L280.489 155.43C280.49 155.429 280.492 155.429 280.494 155.427C280.781 155.145 281.242 155.145 281.527 155.43C281.814 155.717 281.814 156.182 281.527 156.469L281.032 156.964L281.055 156.983L280.294 157.745C279.161 158.878 279.161 160.714 280.294 161.846C281.419 162.971 283.238 162.976 284.372 161.864L286.567 159.669L288.047 158.189C288.051 158.185 288.056 158.184 288.06 158.18C288.347 157.904 288.803 157.905 289.086 158.189C289.373 158.475 289.373 158.94 289.086 159.227L288.24 160.073L288.258 160.078L287.4 160.936C286.781 161.554 286.781 162.557 287.4 163.175C288.979 164.754 291.489 164.801 293.145 163.352L292.766 162.973C292.148 162.355 291.778 161.584 291.641 160.781C291.428 159.523 291.798 158.185 292.767 157.216C293.67 156.313 294.894 155.942 296.074 156.066C295.996 155.785 295.945 155.5 295.928 155.21C295.861 154.087 296.239 152.943 297.095 152.087C297.964 151.218 299.13 150.843 300.269 150.925C299.796 149.507 300.107 147.882 301.234 146.756C302.003 145.987 303.025 145.563 304.113 145.563C304.343 145.563 304.567 145.592 304.789 145.629C304.742 145.379 304.714 145.122 304.714 144.862C304.714 143.774 305.138 142.752 305.907 141.983C307.495 140.396 310.078 140.395 311.665 141.983L312.768 143.086L323.601 132.137C320.047 122.938 312.491 119.144 308.854 117.806Z" fill="#6CFFA7"/>
<path d="M318.453 121.996L323.628 116.821C322.391 115.736 321.087 114.882 319.859 114.221L314.865 119.214C316.042 119.98 317.261 120.896 318.453 121.996Z" fill="#6CFFA7"/>
<path d="M322.27 126.431L327.298 121.402C326.565 120.031 325.674 118.843 324.696 117.831L319.502 123.025C320.471 124.026 321.407 125.156 322.27 126.431Z" fill="#6CFFA7"/>
<path d="M297.878 158.653L297.618 158.393L297.479 158.254C296.972 157.747 296.305 157.493 295.638 157.493C294.972 157.493 294.306 157.747 293.798 158.254C293.114 158.938 292.903 159.909 293.141 160.781C293.256 161.203 293.468 161.604 293.798 161.935L294.197 162.334L294.383 162.519C295.396 163.534 297.048 163.534 298.063 162.519C298.555 162.028 298.826 161.374 298.826 160.679C298.826 159.984 298.555 159.33 298.063 158.839L297.878 158.653Z" fill="#6CFFA7"/>
<path d="M302.322 153.639L301.809 153.126C301.301 152.618 300.635 152.365 299.968 152.365C299.302 152.365 298.635 152.618 298.128 153.126C297.114 154.14 297.114 155.792 298.128 156.806L298.661 157.34L299.412 158.091C300.427 159.106 302.078 159.106 303.093 158.091C303.585 157.599 303.855 156.946 303.855 156.251C303.855 155.555 303.585 154.902 303.093 154.41L302.322 153.639Z" fill="#6CFFA7"/>
<path d="M307.037 148.879L305.953 147.794C305.461 147.302 304.807 147.032 304.112 147.032C303.417 147.032 302.764 147.302 302.272 147.794C301.78 148.286 301.51 148.939 301.51 149.634C301.51 150.33 301.78 150.983 302.272 151.475L303.376 152.579L304.749 153.952C305.763 154.966 307.415 154.967 308.43 153.952C309.445 152.937 309.445 151.286 308.43 150.271L307.037 148.879Z" fill="#6CFFA7"/>
<path d="M311.728 144.13L310.619 143.021C310.112 142.514 309.445 142.26 308.778 142.26C308.112 142.26 307.446 142.514 306.938 143.021C306.447 143.513 306.176 144.166 306.176 144.862C306.176 145.557 306.447 146.21 306.938 146.702L308.067 147.831L309.415 149.179C310.43 150.195 312.082 150.194 313.096 149.179C314.11 148.165 314.11 146.513 313.096 145.499L311.728 144.13Z" fill="#6CFFA7"/>
<path d="M281.5 133.896C281.853 133.544 282.292 133.328 282.757 133.251C283.141 133.187 283.542 133.216 283.928 133.356C284.783 133.665 285.364 134.421 285.447 135.326L286.107 142.636C286.273 144.482 287.425 146.109 289.111 146.881C289.347 146.989 289.615 146.984 289.847 146.867C290.079 146.749 290.242 146.536 290.295 146.282L293.397 131.305C293.583 130.406 293.254 129.491 292.539 128.917L291.067 127.734L289.608 126.561C289.35 126.371 282.712 121.568 274.273 126.069L273.79 126.326L266.466 118.932C264.319 119.967 262.502 121.134 260.974 122.333C261.347 122.945 261.566 123.661 261.566 124.43C261.566 126.66 259.758 128.469 257.527 128.469C256.833 128.469 256.18 128.293 255.61 127.985C255.586 128.018 255.561 128.054 255.538 128.087C253.547 131.002 252.857 133.39 252.746 133.805L259.723 140.782L259.759 141.021C260.118 143.435 261.018 145.462 262.434 147.045C263.159 147.855 264.162 148.318 265.259 148.349C266.362 148.374 267.448 147.948 268.231 147.165L281.5 133.896Z" fill="#6CFFA7"/>
<path d="M253.487 124.43C253.487 122.199 255.295 120.391 257.526 120.391C258.448 120.391 259.295 120.703 259.975 121.223C261.502 120.022 263.291 118.868 265.373 117.83L262.073 114.499C261.61 114.031 260.984 113.778 260.344 113.778C260.129 113.778 259.913 113.806 259.702 113.864C255.938 114.901 249.296 117.926 247.104 126.529C246.899 127.332 247.148 128.207 247.753 128.813L251.567 132.627C251.95 131.489 252.796 129.418 254.45 127.043C253.85 126.338 253.487 125.427 253.487 124.43Z" fill="#6CFFA7"/>
<path d="M282.539 114.317C282.897 114.797 283.274 115.277 283.712 115.683C285.284 117.145 287.55 116.967 288.892 115.306C289.117 115.028 289.349 114.754 289.546 114.457C291.962 110.804 303.092 94.8481 304.688 92.8497C305.503 91.8299 305.435 90.6547 304.556 89.7992C303.725 88.9897 302.486 88.949 301.541 89.7679C299.737 91.332 288.094 103.319 285.599 106.093C284.563 105.148 280.184 101.988 279.101 101.311C277.644 100.401 275.948 101.063 275.548 102.708C275.346 103.537 275.704 104.226 276.169 104.857C278.364 107.842 280.326 111.345 282.539 114.317Z" fill="#6CFFA7"/>
</g>
<g filter="url(#filter1_d_3806_50168)">
<path d="M20 127C20 146.882 36.1178 163 56 163C75.8822 163 92 146.882 92 127C92 107.118 75.8822 91 56 91C36.1178 91 20 107.118 20 127ZM44.3297 96.3098C45.5531 97.5936 48.368 99.315 54.6746 99.315C61.513 99.315 65.1723 97.2923 66.8174 95.9971C70.9852 97.456 74.7624 99.7269 77.9759 102.627H69.154C68.4056 102.627 67.7277 103.068 67.4235 103.752C66.9443 104.83 65.6064 105.212 64.6301 104.55L63.9209 104.068C63.4585 103.755 62.8815 103.661 62.3436 103.813L54.3629 106.063C53.8417 106.21 53.4084 106.573 53.1724 107.061L51.462 110.594C51.2887 110.952 51.0072 111.246 50.6574 111.435L47.1513 113.328C46.5391 113.659 46.1574 114.299 46.1574 114.995V115.047C46.1574 116.093 47.0054 116.941 48.0511 116.941H53.8367C54.588 116.941 55.1971 117.55 55.1971 118.301C55.1971 119.052 55.8063 119.661 56.5575 119.661H58.0459C58.7972 119.661 59.4063 119.052 59.4063 118.301V116.704L64.7295 119.661L64.966 122.737L63.31 121.081H55.8777C51.77 121.081 47.8254 122.69 44.8893 125.563C43.9603 126.472 43.4366 127.716 43.4366 129.016C43.4366 130.298 43.9458 131.527 44.852 132.433L45.1562 132.737C46.0624 133.643 47.2914 134.152 48.5729 134.152H51.1223C52.4595 134.152 53.5433 135.236 53.5433 136.573V137.76L51.4352 144.403C50.9543 145.918 51.3582 147.574 52.4821 148.698V148.698C53.28 149.496 54.3622 149.945 55.4906 149.945C59.1878 149.945 62.523 147.724 63.9487 144.312L64.8647 142.121C66.8839 137.29 67.9233 132.107 67.9233 126.872H69.0472C69.8638 126.872 70.5258 126.21 70.5258 125.393V124.216C70.5258 123.399 71.1879 122.737 72.0045 122.737C72.8211 122.737 73.4832 122.075 73.4832 121.258V117.414L82.721 126.652C84.3363 128.267 86.4831 129.22 88.75 129.362C87.8072 142.521 79.1017 153.535 67.1858 157.868C66.0593 156.572 63.2942 154.685 56.6855 154.685C50.1151 154.685 46.4872 156.55 44.7531 157.845C42.9765 157.195 41.2701 156.408 39.6514 155.475V152.667C39.6514 151.736 39.4082 150.82 38.9462 150.012L35.1516 143.371C34.6896 142.562 34.4465 141.647 34.4465 140.716V137.907C34.4465 136.453 33.8546 135.061 32.8068 134.052C31.8096 133.092 30.479 132.555 29.0948 132.555H23.6371C23.5678 132.15 23.5045 131.743 23.4501 131.333L26.5628 128.421C28.5281 126.582 29.8174 124.136 30.224 121.476C30.7968 117.729 33.1068 114.474 36.4543 112.696L39.2404 111.216C40.7307 110.425 41.6624 108.876 41.6624 107.188C41.6624 104.669 39.6202 102.627 37.1012 102.627H34.0241C37.0168 99.9262 40.498 97.7723 44.3297 96.3098Z" fill="#6CFFA7"/>
</g>
<g filter="url(#filter2_d_3806_50168)">
<path d="M110 127H222.5" stroke="#6CFFA7" stroke-width="2" stroke-dasharray="7 7"/>
</g>
<g filter="url(#filter3_d_3806_50168)">
<path d="M63 73.5496L142.55 18" stroke="#6CFFA7" stroke-width="2" stroke-dasharray="7 7"/>
</g>
<g filter="url(#filter4_d_3806_50168)">
<path d="M63 181L142.55 236" stroke="#6CFFA7" stroke-width="2" stroke-dasharray="7 7"/>
</g>
<g filter="url(#filter5_d_3806_50168)">
<path d="M287.551 73.5496L208.001 18" stroke="#6CFFA7" stroke-width="2" stroke-dasharray="7 7"/>
</g>
<g filter="url(#filter6_d_3806_50168)">
<path d="M287.551 181L208.001 236" stroke="#6CFFA7" stroke-width="2" stroke-dasharray="7 7"/>
</g>
<defs>
<filter id="filter0_d_3806_50168" x="215.51" y="54.5103" width="149.082" height="149.082" filterUnits="userSpaceOnUse" color-interpolation-filters="sRGB">
<feFlood flood-opacity="0" result="BackgroundImageFix"/>
<feColorMatrix in="SourceAlpha" type="matrix" values="0 0 0 0 0 0 0 0 0 0 0 0 0 0 0 0 0 0 127 0" result="hardAlpha"/>
<feOffset dx="2.05133" dy="2.05133"/>
<feGaussianBlur stdDeviation="13.7705"/>
<feComposite in2="hardAlpha" operator="out"/>
<feColorMatrix type="matrix" values="0 0 0 0 0.282353 0 0 0 0 1 0 0 0 0 0.568627 0 0 0 0.64 0"/>
<feBlend mode="normal" in2="BackgroundImageFix" result="effect1_dropShadow_3806_50168"/>
<feBlend mode="normal" in="SourceGraphic" in2="effect1_dropShadow_3806_50168" result="shape"/>
</filter>
<filter id="filter1_d_3806_50168" x="0" y="71" width="112" height="112" filterUnits="userSpaceOnUse" color-interpolation-filters="sRGB">
<feFlood flood-opacity="0" result="BackgroundImageFix"/>
<feColorMatrix in="SourceAlpha" type="matrix" values="0 0 0 0 0 0 0 0 0 0 0 0 0 0 0 0 0 0 127 0" result="hardAlpha"/>
<feOffset/>
<feGaussianBlur stdDeviation="10"/>
<feComposite in2="hardAlpha" operator="out"/>
<feColorMatrix type="matrix" values="0 0 0 0 0.423529 0 0 0 0 1 0 0 0 0 0.654902 0 0 0 0.6 0"/>
<feBlend mode="normal" in2="BackgroundImageFix" result="effect1_dropShadow_3806_50168"/>
<feBlend mode="normal" in="SourceGraphic" in2="effect1_dropShadow_3806_50168" result="shape"/>
</filter>
<filter id="filter2_d_3806_50168" x="102" y="118" width="128.5" height="18" filterUnits="userSpaceOnUse" color-interpolation-filters="sRGB">
<feFlood flood-opacity="0" result="BackgroundImageFix"/>
<feColorMatrix in="SourceAlpha" type="matrix" values="0 0 0 0 0 0 0 0 0 0 0 0 0 0 0 0 0 0 127 0" result="hardAlpha"/>
<feOffset/>
<feGaussianBlur stdDeviation="4"/>
<feComposite in2="hardAlpha" operator="out"/>
<feColorMatrix type="matrix" values="0 0 0 0 0.423529 0 0 0 0 1 0 0 0 0 0.654902 0 0 0 0.6 0"/>
<feBlend mode="normal" in2="BackgroundImageFix" result="effect1_dropShadow_3806_50168"/>
<feBlend mode="normal" in="SourceGraphic" in2="effect1_dropShadow_3806_50168" result="shape"/>
</filter>
<filter id="filter3_d_3806_50168" x="54.1797" y="9.42749" width="97.1895" height="72.6946" filterUnits="userSpaceOnUse" color-interpolation-filters="sRGB">
<feFlood flood-opacity="0" result="BackgroundImageFix"/>
<feColorMatrix in="SourceAlpha" type="matrix" values="0 0 0 0 0 0 0 0 0 0 0 0 0 0 0 0 0 0 127 0" result="hardAlpha"/>
<feOffset/>
<feGaussianBlur stdDeviation="4"/>
<feComposite in2="hardAlpha" operator="out"/>
<feColorMatrix type="matrix" values="0 0 0 0 0.423529 0 0 0 0 1 0 0 0 0 0.654902 0 0 0 0.6 0"/>
<feBlend mode="normal" in2="BackgroundImageFix" result="effect1_dropShadow_3806_50168"/>
<feBlend mode="normal" in="SourceGraphic" in2="effect1_dropShadow_3806_50168" result="shape"/>
</filter>
<filter id="filter4_d_3806_50168" x="54.1777" y="172.431" width="97.1934" height="72.1372" filterUnits="userSpaceOnUse" color-interpolation-filters="sRGB">
<feFlood flood-opacity="0" result="BackgroundImageFix"/>
<feColorMatrix in="SourceAlpha" type="matrix" values="0 0 0 0 0 0 0 0 0 0 0 0 0 0 0 0 0 0 127 0" result="hardAlpha"/>
<feOffset/>
<feGaussianBlur stdDeviation="4"/>
<feComposite in2="hardAlpha" operator="out"/>
<feColorMatrix type="matrix" values="0 0 0 0 0.423529 0 0 0 0 1 0 0 0 0 0.654902 0 0 0 0.6 0"/>
<feBlend mode="normal" in2="BackgroundImageFix" result="effect1_dropShadow_3806_50168"/>
<feBlend mode="normal" in="SourceGraphic" in2="effect1_dropShadow_3806_50168" result="shape"/>
</filter>
<filter id="filter5_d_3806_50168" x="199.182" y="9.42749" width="97.1895" height="72.6946" filterUnits="userSpaceOnUse" color-interpolation-filters="sRGB">
<feFlood flood-opacity="0" result="BackgroundImageFix"/>
<feColorMatrix in="SourceAlpha" type="matrix" values="0 0 0 0 0 0 0 0 0 0 0 0 0 0 0 0 0 0 127 0" result="hardAlpha"/>
<feOffset/>
<feGaussianBlur stdDeviation="4"/>
<feComposite in2="hardAlpha" operator="out"/>
<feColorMatrix type="matrix" values="0 0 0 0 0.423529 0 0 0 0 1 0 0 0 0 0.654902 0 0 0 0.6 0"/>
<feBlend mode="normal" in2="BackgroundImageFix" result="effect1_dropShadow_3806_50168"/>
<feBlend mode="normal" in="SourceGraphic" in2="effect1_dropShadow_3806_50168" result="shape"/>
</filter>
<filter id="filter6_d_3806_50168" x="199.18" y="172.431" width="97.1934" height="72.1372" filterUnits="userSpaceOnUse" color-interpolation-filters="sRGB">
<feFlood flood-opacity="0" result="BackgroundImageFix"/>
<feColorMatrix in="SourceAlpha" type="matrix" values="0 0 0 0 0 0 0 0 0 0 0 0 0 0 0 0 0 0 127 0" result="hardAlpha"/>
<feOffset/>
<feGaussianBlur stdDeviation="4"/>
<feComposite in2="hardAlpha" operator="out"/>
<feColorMatrix type="matrix" values="0 0 0 0 0.423529 0 0 0 0 1 0 0 0 0 0.654902 0 0 0 0.6 0"/>
<feBlend mode="normal" in2="BackgroundImageFix" result="effect1_dropShadow_3806_50168"/>
<feBlend mode="normal" in="SourceGraphic" in2="effect1_dropShadow_3806_50168" result="shape"/>
</filter>
</defs>
</svg>
