<svg width="377" height="457" viewBox="0 0 377 457" fill="none" xmlns="http://www.w3.org/2000/svg">
<path fill-rule="evenodd" clip-rule="evenodd" d="M16 20H78C83.5228 20 87.7928 24.7452 90.4447 29.5897C93.8406 35.7933 100.429 40 108 40H270C277.571 40 284.159 35.7933 287.555 29.5897C290.207 24.7452 294.477 20 300 20H361C369.837 20 377 27.1634 377 36V421C377 429.837 369.837 437 361 437H326C320.477 437 316.207 432.255 313.555 427.41C310.159 421.207 303.571 417 296 417H82C74.4291 417 67.8407 421.207 64.4447 427.41C61.7928 432.255 57.5228 437 52 437H16C7.16344 437 0 429.837 0 421V36C0 27.1634 7.16344 20 16 20Z" fill="white"/>
</svg>
