<svg width="377" height="457" viewBox="0 0 377 457" fill="none" xmlns="http://www.w3.org/2000/svg">
<path fill-rule="evenodd" clip-rule="evenodd" d="M125.718 10.6418L123.139 17.519H126.725L128.813 11.5913L130.897 17.519H134.483L131.904 10.6418H125.718ZM135.529 20.3343L138.091 27.195H134.292L131.883 20.3343H135.529ZM122.093 20.3343L119.519 27.2115H123.33L125.74 20.3343H122.093Z" fill="#FF6600"/>
<path fill-rule="evenodd" clip-rule="evenodd" d="M139.901 31.9917C142.431 29.8793 144.237 27.0931 145.082 23.994C145.928 20.8949 145.776 17.6256 144.646 14.6096C143.515 11.5937 141.458 8.96997 138.742 7.07834C136.025 5.1867 132.773 4.11429 129.408 4L130.71 7.47162C133.104 7.80022 135.358 8.74378 137.228 10.2006C139.099 11.6574 140.517 13.5721 141.327 15.7384C142.138 17.9047 142.312 20.2403 141.829 22.4934C141.347 24.7466 140.227 26.8318 138.59 28.5243L139.892 32L139.901 31.9917ZM128.201 4C124.837 4.11664 121.587 5.19074 118.873 7.08328C116.158 8.97582 114.103 11.5996 112.974 14.6151C111.845 17.6306 111.694 20.8989 112.54 23.9969C113.387 27.0949 115.192 29.88 117.721 31.9917L119.024 28.516C117.387 26.8236 116.267 24.7383 115.784 22.4852C115.302 20.232 115.475 17.8964 116.286 15.7301C117.097 13.5639 118.514 11.6491 120.385 10.1923C122.256 8.73553 124.51 7.79197 126.903 7.46336L128.201 4Z" fill="#FF6600"/>
<path fill-rule="evenodd" clip-rule="evenodd" d="M226.336 14.9927C225.049 14.9968 223.793 15.3634 222.725 16.0463C221.656 16.7291 220.825 17.6976 220.336 18.8294C219.846 19.9612 219.72 21.2055 219.974 22.4053C220.228 23.605 220.85 24.7064 221.761 25.5703C222.673 26.4342 223.833 27.0219 225.096 27.2591C226.358 27.4964 227.667 27.3725 228.855 26.9033C230.044 26.434 231.06 25.6404 231.774 24.6226C232.489 23.6048 232.87 22.4084 232.87 21.1847C232.87 20.3698 232.701 19.5629 232.372 18.8103C232.044 18.0577 231.562 17.3742 230.955 16.799C230.348 16.2237 229.628 15.7681 228.835 15.4581C228.043 15.1481 227.193 14.99 226.336 14.9927V14.9927ZM226.336 17.68C227.069 17.68 227.785 17.8865 228.394 18.2734C229.003 18.6603 229.477 19.2103 229.758 19.8537C230.038 20.4971 230.111 21.2051 229.968 21.8881C229.826 22.5712 229.473 23.1986 228.955 23.691C228.437 24.1835 227.777 24.5188 227.059 24.6547C226.341 24.7905 225.596 24.7208 224.919 24.4543C224.243 24.1878 223.664 23.7365 223.257 23.1574C222.85 22.5784 222.633 21.8976 222.633 21.2012C222.633 20.2673 223.023 19.3717 223.718 18.7113C224.412 18.051 225.354 17.68 226.336 17.68V17.68Z" fill="white" fill-opacity="0.92"/>
<path fill-rule="evenodd" clip-rule="evenodd" d="M188.324 14.9928C191.971 14.9928 194.276 17.8824 194.276 21.1848C194.276 24.4872 191.971 27.3767 188.324 27.3767C187.616 27.3747 186.915 27.2391 186.262 26.9776C185.609 26.7161 185.018 26.334 184.521 25.8535V27.1497H181.695V10.5264H184.404V16.6192C184.902 16.1049 185.506 15.693 186.178 15.409C186.85 15.125 187.576 14.9749 188.311 14.9681L188.324 14.9928ZM187.938 24.8999C190.109 24.8999 191.376 23.1621 191.376 21.2178C191.376 19.2735 190.117 17.5357 187.938 17.5357C185.759 17.5357 184.465 19.2529 184.465 21.2178C184.465 23.1827 185.75 24.8752 187.938 24.8752V24.8999Z" fill="white" fill-opacity="0.92"/>
<path fill-rule="evenodd" clip-rule="evenodd" d="M167.768 27.1826L166.396 23.517H158.03L156.654 27.1826H153.659L159.854 10.6418H164.573L170.772 27.1826H167.768ZM161.872 13.259L159.012 20.8998H165.415L162.55 13.259H161.872Z" fill="white" fill-opacity="0.92"/>
<path fill-rule="evenodd" clip-rule="evenodd" d="M265 15.2197V27.1826H262.174V17.7914H258.401V27.1826H255.575V17.7914H251.802V27.1826H248.976V15.2197H265Z" fill="white" fill-opacity="0.92"/>
<path fill-rule="evenodd" clip-rule="evenodd" d="M209.566 17.7914H206.197V24.6067H209.327V27.1825H203.371V17.7914H200.962V15.2197H203.371V12.2434H206.197V15.2197H209.566V17.7914Z" fill="white" fill-opacity="0.92"/>
<path fill-rule="evenodd" clip-rule="evenodd" d="M196.507 26.9266V15.2197H199.333V27.1826H196.507V26.9266Z" fill="white" fill-opacity="0.92"/>
<path d="M199.477 10.6418H196.386V13.6718H199.477V10.6418Z" fill="white" fill-opacity="0.92"/>
<path fill-rule="evenodd" clip-rule="evenodd" d="M179.945 15.2197V17.7914H174.896V27.1826H172.07V15.2197H179.945Z" fill="white" fill-opacity="0.92"/>
<path fill-rule="evenodd" clip-rule="evenodd" d="M219.551 15.2197V17.7914H214.502V27.1826H211.676V15.2197H219.551Z" fill="white" fill-opacity="0.92"/>
<path fill-rule="evenodd" clip-rule="evenodd" d="M240.715 14.9927C239.427 14.9927 238.168 15.3558 237.097 16.0362C236.026 16.7166 235.191 17.6836 234.698 18.8151C234.205 19.9465 234.077 21.1915 234.328 22.3926C234.579 23.5937 235.199 24.697 236.11 25.563C237.021 26.429 238.181 27.0187 239.444 27.2576C240.707 27.4965 242.017 27.3739 243.207 26.9052C244.397 26.4366 245.414 25.643 246.129 24.6247C246.845 23.6064 247.227 22.4093 247.227 21.1846C247.227 19.5424 246.54 17.9675 245.319 16.8063C244.098 15.645 242.442 14.9927 240.715 14.9927ZM240.715 17.68C241.447 17.68 242.163 17.8865 242.772 18.2734C243.381 18.6603 243.856 19.2102 244.136 19.8537C244.416 20.4971 244.489 21.205 244.347 21.8881C244.204 22.5711 243.851 23.1985 243.333 23.691C242.815 24.1834 242.155 24.5188 241.437 24.6546C240.719 24.7905 239.974 24.7208 239.297 24.4543C238.621 24.1878 238.042 23.7364 237.636 23.1574C237.229 22.5783 237.011 21.8976 237.011 21.2011C237.013 20.2676 237.403 19.3726 238.097 18.7125C238.792 18.0524 239.733 17.6811 240.715 17.68V17.68Z" fill="white" fill-opacity="0.92"/>
<path d="M100.86 429V444H97.48V430.46L99.02 432H87.4L88.94 430.46V444H85.54V429H100.86ZM103.541 432.62H106.881V436.24L106.741 436.68V439.42L106.881 440.24V447.3H103.541V432.62ZM105.721 438.32C105.948 437.107 106.341 436.053 106.901 435.16C107.475 434.253 108.188 433.553 109.041 433.06C109.908 432.567 110.868 432.32 111.921 432.32C113.041 432.32 114.021 432.573 114.861 433.08C115.715 433.573 116.381 434.273 116.861 435.18C117.341 436.073 117.581 437.12 117.581 438.32C117.581 439.507 117.341 440.553 116.861 441.46C116.381 442.353 115.715 443.053 114.861 443.56C114.021 444.053 113.041 444.3 111.921 444.3C110.855 444.3 109.895 444.053 109.041 443.56C108.201 443.067 107.495 442.373 106.921 441.48C106.348 440.573 105.948 439.52 105.721 438.32ZM114.201 438.32C114.201 437.653 114.061 437.067 113.781 436.56C113.515 436.04 113.141 435.64 112.661 435.36C112.181 435.067 111.628 434.92 111.001 434.92C110.375 434.92 109.781 435.067 109.221 435.36C108.661 435.64 108.168 436.04 107.741 436.56C107.328 437.067 107.001 437.653 106.761 438.32C107.001 438.987 107.328 439.573 107.741 440.08C108.168 440.587 108.661 440.987 109.221 441.28C109.781 441.56 110.375 441.7 111.001 441.7C111.628 441.7 112.181 441.56 112.661 441.28C113.141 440.987 113.515 440.587 113.781 440.08C114.061 439.573 114.201 438.987 114.201 438.32ZM119.557 444V432.62H122.837V442.24L122.017 442.02L128.877 432.62H133.177V444H129.897V434.2L130.717 434.44L123.737 444H119.557ZM148.75 439.36C148.616 440.333 148.236 441.193 147.61 441.94C146.996 442.687 146.203 443.267 145.23 443.68C144.256 444.093 143.17 444.3 141.97 444.3C140.61 444.3 139.41 444.053 138.37 443.56C137.343 443.053 136.536 442.347 135.95 441.44C135.376 440.533 135.09 439.493 135.09 438.32C135.09 437.133 135.376 436.093 135.95 435.2C136.536 434.293 137.343 433.587 138.37 433.08C139.41 432.573 140.61 432.32 141.97 432.32C143.17 432.32 144.256 432.533 145.23 432.96C146.203 433.373 146.996 433.953 147.61 434.7C148.236 435.433 148.616 436.293 148.75 437.28H145.41C145.236 436.507 144.836 435.913 144.21 435.5C143.596 435.073 142.85 434.86 141.97 434.86C141.263 434.86 140.643 435 140.11 435.28C139.59 435.547 139.19 435.94 138.91 436.46C138.63 436.967 138.49 437.587 138.49 438.32C138.49 439.04 138.63 439.66 138.91 440.18C139.19 440.687 139.59 441.08 140.11 441.36C140.643 441.627 141.263 441.76 141.97 441.76C142.863 441.76 143.616 441.54 144.23 441.1C144.856 440.66 145.25 440.08 145.41 439.36H148.75ZM157.073 444.3C155.66 444.3 154.42 444.053 153.353 443.56C152.286 443.053 151.453 442.353 150.853 441.46C150.253 440.553 149.953 439.507 149.953 438.32C149.953 437.12 150.253 436.073 150.853 435.18C151.453 434.273 152.286 433.573 153.353 433.08C154.42 432.573 155.66 432.32 157.073 432.32C158.486 432.32 159.726 432.573 160.793 433.08C161.86 433.573 162.686 434.273 163.273 435.18C163.873 436.073 164.173 437.12 164.173 438.32C164.173 439.507 163.873 440.553 163.273 441.46C162.686 442.353 161.86 443.053 160.793 443.56C159.726 444.053 158.486 444.3 157.073 444.3ZM157.073 441.76C157.846 441.76 158.506 441.62 159.053 441.34C159.613 441.06 160.04 440.667 160.333 440.16C160.64 439.64 160.793 439.027 160.793 438.32C160.793 437.6 160.64 436.987 160.333 436.48C160.04 435.96 159.613 435.56 159.053 435.28C158.506 435 157.846 434.86 157.073 434.86C156.313 434.86 155.653 435 155.093 435.28C154.533 435.56 154.1 435.96 153.793 436.48C153.5 436.987 153.353 437.6 153.353 438.32C153.353 439.027 153.5 439.64 153.793 440.16C154.1 440.667 154.533 441.06 155.093 441.34C155.653 441.62 156.313 441.76 157.073 441.76ZM172.539 444.3C171.193 444.3 169.986 444.053 168.919 443.56C167.866 443.053 167.033 442.347 166.419 441.44C165.819 440.533 165.519 439.48 165.519 438.28C165.519 437.093 165.806 436.053 166.379 435.16C166.966 434.267 167.766 433.573 168.779 433.08C169.793 432.573 170.946 432.32 172.239 432.32C173.559 432.32 174.693 432.613 175.639 433.2C176.586 433.773 177.313 434.587 177.819 435.64C178.339 436.693 178.599 437.933 178.599 439.36H168.199V437.14H176.799L175.499 437.94C175.446 437.273 175.279 436.707 174.999 436.24C174.733 435.773 174.366 435.413 173.899 435.16C173.433 434.907 172.886 434.78 172.259 434.78C171.579 434.78 170.986 434.92 170.479 435.2C169.986 435.467 169.599 435.847 169.319 436.34C169.053 436.82 168.919 437.387 168.919 438.04C168.919 438.827 169.093 439.5 169.439 440.06C169.786 440.62 170.293 441.047 170.959 441.34C171.626 441.633 172.433 441.78 173.379 441.78C174.233 441.78 175.093 441.66 175.959 441.42C176.826 441.167 177.606 440.813 178.299 440.36V442.6C177.553 443.133 176.679 443.553 175.679 443.86C174.693 444.153 173.646 444.3 172.539 444.3ZM195.954 441.48V446.8H193.054V444H182.414V446.8H179.514V441.48H182.694L183.434 441.54H191.714L192.374 441.48H195.954ZM181.974 432.62H193.854V443.24H190.514V433.58L192.054 435.12H183.634L184.974 433.92C185.094 434.493 185.168 435.04 185.194 435.56C185.221 436.067 185.234 436.54 185.234 436.98C185.234 438.873 184.948 440.353 184.374 441.42C183.801 442.473 182.994 443 181.954 443L180.594 441.86C181.661 441.087 182.194 439.24 182.194 436.32C182.194 435.747 182.174 435.153 182.134 434.54C182.094 433.913 182.041 433.273 181.974 432.62ZM197.721 444V432.62H201.001V442.24L200.181 442.02L207.041 432.62H211.341V444H208.061V434.2L208.881 434.44L201.901 444H197.721ZM213.854 432.62H217.174V444H213.854V432.62ZM223.394 432.62H226.714V444H223.394V432.62ZM215.754 436.94H224.694V439.46H215.754V436.94ZM238.785 437.88V440.06H233.185L233.145 439.98C232.278 439.98 231.518 439.833 230.865 439.54C230.212 439.233 229.698 438.807 229.325 438.26C228.965 437.7 228.785 437.053 228.785 436.32C228.785 435.587 228.965 434.947 229.325 434.4C229.698 433.84 230.212 433.407 230.865 433.1C231.518 432.78 232.278 432.62 233.145 432.62H241.165V444H237.825V433.5L238.825 434.88H233.945C233.385 434.88 232.945 435.013 232.625 435.28C232.318 435.533 232.165 435.893 232.165 436.36C232.165 436.827 232.318 437.2 232.625 437.48C232.945 437.747 233.385 437.88 233.945 437.88H238.785ZM236.265 438.68L232.325 444H228.525L232.625 438.68H236.265ZM243.678 444V432.62H246.958V442.24L246.138 442.02L252.998 432.62H257.298V444H254.018V434.2L254.838 434.44L247.858 444H243.678ZM250.398 431.58C249.105 431.58 248.065 431.267 247.278 430.64C246.491 430 246.005 429.073 245.818 427.86H248.438C248.531 428.433 248.745 428.873 249.078 429.18C249.425 429.473 249.865 429.62 250.398 429.62C250.931 429.62 251.365 429.473 251.698 429.18C252.031 428.873 252.251 428.433 252.358 427.86H254.958C254.785 429.073 254.298 430 253.498 430.64C252.711 431.267 251.678 431.58 250.398 431.58ZM272.871 439.36C272.737 440.333 272.357 441.193 271.731 441.94C271.117 442.687 270.324 443.267 269.351 443.68C268.377 444.093 267.291 444.3 266.091 444.3C264.731 444.3 263.531 444.053 262.491 443.56C261.464 443.053 260.657 442.347 260.071 441.44C259.497 440.533 259.211 439.493 259.211 438.32C259.211 437.133 259.497 436.093 260.071 435.2C260.657 434.293 261.464 433.587 262.491 433.08C263.531 432.573 264.731 432.32 266.091 432.32C267.291 432.32 268.377 432.533 269.351 432.96C270.324 433.373 271.117 433.953 271.731 434.7C272.357 435.433 272.737 436.293 272.871 437.28H269.531C269.357 436.507 268.957 435.913 268.331 435.5C267.717 435.073 266.971 434.86 266.091 434.86C265.384 434.86 264.764 435 264.231 435.28C263.711 435.547 263.311 435.94 263.031 436.46C262.751 436.967 262.611 437.587 262.611 438.32C262.611 439.04 262.751 439.66 263.031 440.18C263.311 440.687 263.711 441.08 264.231 441.36C264.764 441.627 265.384 441.76 266.091 441.76C266.984 441.76 267.737 441.54 268.351 441.1C268.977 440.66 269.371 440.08 269.531 439.36H272.871ZM284.234 437.88V440.06H278.634L278.594 439.98C277.727 439.98 276.967 439.833 276.314 439.54C275.661 439.233 275.147 438.807 274.774 438.26C274.414 437.7 274.234 437.053 274.234 436.32C274.234 435.587 274.414 434.947 274.774 434.4C275.147 433.84 275.661 433.407 276.314 433.1C276.967 432.78 277.727 432.62 278.594 432.62H286.614V444H283.274V433.5L284.274 434.88H279.394C278.834 434.88 278.394 435.013 278.074 435.28C277.767 435.533 277.614 435.893 277.614 436.36C277.614 436.827 277.767 437.2 278.074 437.48C278.394 437.747 278.834 437.88 279.394 437.88H284.234ZM281.714 438.68L277.774 444H273.974L278.074 438.68H281.714ZM289.147 429H292.627L292.067 439.06H289.707L289.147 429ZM290.887 444.18C290.314 444.18 289.847 444.013 289.487 443.68C289.127 443.333 288.947 442.893 288.947 442.36C288.947 441.813 289.127 441.373 289.487 441.04C289.847 440.693 290.314 440.52 290.887 440.52C291.461 440.52 291.927 440.693 292.287 441.04C292.647 441.373 292.827 441.813 292.827 442.36C292.827 442.893 292.647 443.333 292.287 443.68C291.927 444.013 291.461 444.18 290.887 444.18Z" fill="white" fill-opacity="0.92"/>
</svg>
