<svg width="377" height="457" viewBox="0 0 377 457" fill="none" xmlns="http://www.w3.org/2000/svg">
<path fill-rule="evenodd" clip-rule="evenodd" d="M125.718 10.6419L123.139 17.5191H126.725L128.813 11.5913L130.897 17.5191H134.483L131.904 10.6419H125.718ZM135.529 20.3343L138.091 27.195H134.292L131.883 20.3343H135.529ZM122.093 20.3343L119.519 27.2115H123.33L125.74 20.3343H122.093Z" fill="#FF6600"/>
<path fill-rule="evenodd" clip-rule="evenodd" d="M139.901 31.9917C142.431 29.8793 144.237 27.0931 145.082 23.994C145.928 20.8949 145.776 17.6256 144.646 14.6096C143.515 11.5937 141.458 8.96997 138.742 7.07834C136.025 5.1867 132.773 4.11429 129.408 4L130.71 7.47162C133.104 7.80022 135.358 8.74378 137.228 10.2006C139.099 11.6574 140.517 13.5721 141.327 15.7384C142.138 17.9047 142.312 20.2403 141.829 22.4934C141.347 24.7466 140.227 26.8318 138.59 28.5243L139.892 32L139.901 31.9917ZM128.201 4C124.837 4.11664 121.587 5.19074 118.873 7.08328C116.158 8.97582 114.103 11.5996 112.974 14.6151C111.845 17.6306 111.694 20.8989 112.54 23.9969C113.387 27.0949 115.192 29.88 117.721 31.9917L119.024 28.516C117.387 26.8236 116.267 24.7383 115.784 22.4852C115.302 20.232 115.475 17.8964 116.286 15.7301C117.097 13.5639 118.514 11.6491 120.385 10.1923C122.256 8.73553 124.51 7.79197 126.903 7.46336L128.201 4Z" fill="#FF6600"/>
<path fill-rule="evenodd" clip-rule="evenodd" d="M226.336 14.9928C225.049 14.9969 223.793 15.3635 222.725 16.0463C221.656 16.7292 220.825 17.6976 220.336 18.8294C219.846 19.9612 219.72 21.2056 219.974 22.4053C220.228 23.6051 220.85 24.7064 221.761 25.5703C222.673 26.4342 223.833 27.0219 225.096 27.2592C226.358 27.4964 227.667 27.3726 228.855 26.9033C230.044 26.4341 231.06 25.6404 231.774 24.6226C232.489 23.6048 232.87 22.4085 232.87 21.1847C232.87 20.3698 232.701 19.563 232.372 18.8104C232.044 18.0578 231.562 17.3743 230.955 16.799C230.348 16.2238 229.628 15.7681 228.835 15.4582C228.043 15.1482 227.193 14.9901 226.336 14.9928V14.9928ZM226.336 17.6801C227.069 17.6801 227.785 17.8866 228.394 18.2735C229.003 18.6604 229.477 19.2103 229.758 19.8537C230.038 20.4972 230.111 21.2051 229.968 21.8882C229.826 22.5712 229.473 23.1986 228.955 23.6911C228.437 24.1835 227.777 24.5189 227.059 24.6547C226.341 24.7906 225.596 24.7209 224.919 24.4544C224.243 24.1878 223.664 23.7365 223.257 23.1575C222.85 22.5784 222.633 21.8977 222.633 21.2012C222.633 20.2674 223.023 19.3717 223.718 18.7114C224.412 18.0511 225.354 17.6801 226.336 17.6801V17.6801Z" fill="white" fill-opacity="0.92"/>
<path fill-rule="evenodd" clip-rule="evenodd" d="M188.324 14.9927C191.971 14.9927 194.276 17.8823 194.276 21.1847C194.276 24.4871 191.971 27.3766 188.324 27.3766C187.616 27.3746 186.915 27.239 186.262 26.9775C185.609 26.716 185.018 26.334 184.521 25.8534V27.1496H181.695V10.5263H184.404V16.6192C184.902 16.1048 185.506 15.6929 186.178 15.4089C186.85 15.1249 187.576 14.9748 188.311 14.968L188.324 14.9927ZM187.938 24.8999C190.109 24.8999 191.376 23.162 191.376 21.2177C191.376 19.2734 190.117 17.5356 187.938 17.5356C185.759 17.5356 184.465 19.2528 184.465 21.2177C184.465 23.1826 185.75 24.8751 187.938 24.8751V24.8999Z" fill="white" fill-opacity="0.92"/>
<path fill-rule="evenodd" clip-rule="evenodd" d="M167.768 27.1826L166.396 23.517H158.03L156.654 27.1826H153.659L159.854 10.6419H164.573L170.772 27.1826H167.768ZM161.872 13.259L159.012 20.8999H165.415L162.55 13.259H161.872Z" fill="white" fill-opacity="0.92"/>
<path fill-rule="evenodd" clip-rule="evenodd" d="M265 15.2198V27.1826H262.174V17.7915H258.401V27.1826H255.575V17.7915H251.802V27.1826H248.976V15.2198H265Z" fill="white" fill-opacity="0.92"/>
<path fill-rule="evenodd" clip-rule="evenodd" d="M209.566 17.7915H206.197V24.6068H209.327V27.1826H203.371V17.7915H200.962V15.2198H203.371V12.2435H206.197V15.2198H209.566V17.7915Z" fill="white" fill-opacity="0.92"/>
<path fill-rule="evenodd" clip-rule="evenodd" d="M196.507 26.9267V15.2198H199.333V27.1826H196.507V26.9267Z" fill="white" fill-opacity="0.92"/>
<path d="M199.477 10.6419H196.386V13.6718H199.477V10.6419Z" fill="white" fill-opacity="0.92"/>
<path fill-rule="evenodd" clip-rule="evenodd" d="M179.945 15.2198V17.7915H174.896V27.1826H172.07V15.2198H179.945Z" fill="white" fill-opacity="0.92"/>
<path fill-rule="evenodd" clip-rule="evenodd" d="M219.551 15.2198V17.7915H214.502V27.1826H211.676V15.2198H219.551Z" fill="white" fill-opacity="0.92"/>
<path fill-rule="evenodd" clip-rule="evenodd" d="M240.715 14.9927C239.427 14.9927 238.168 15.3559 237.097 16.0363C236.026 16.7167 235.191 17.6837 234.698 18.8151C234.205 19.9466 234.077 21.1916 234.328 22.3927C234.579 23.5938 235.199 24.6971 236.11 25.5631C237.021 26.429 238.181 27.0187 239.444 27.2577C240.707 27.4966 242.017 27.374 243.207 26.9053C244.397 26.4366 245.414 25.643 246.129 24.6248C246.845 23.6065 247.227 22.4093 247.227 21.1847C247.227 19.5425 246.54 17.9675 245.319 16.8063C244.098 15.6451 242.442 14.9927 240.715 14.9927ZM240.715 17.68C241.447 17.68 242.163 17.8866 242.772 18.2735C243.381 18.6604 243.856 19.2103 244.136 19.8537C244.416 20.4971 244.489 21.2051 244.347 21.8881C244.204 22.5712 243.851 23.1986 243.333 23.691C242.815 24.1835 242.155 24.5188 241.437 24.6547C240.719 24.7906 239.974 24.7208 239.297 24.4543C238.621 24.1878 238.042 23.7365 237.636 23.1574C237.229 22.5784 237.011 21.8976 237.011 21.2012C237.013 20.2677 237.403 19.3727 238.097 18.7126C238.792 18.0525 239.733 17.6811 240.715 17.68V17.68Z" fill="white" fill-opacity="0.92"/>
<path d="M136.979 432.5L138.639 432.82L140.319 432.5V447.3H136.979V432.5ZM138.639 431.32C138.039 431.32 137.545 431.167 137.159 430.86C136.785 430.54 136.599 430.12 136.599 429.6C136.599 429.067 136.785 428.647 137.159 428.34C137.545 428.02 138.039 427.86 138.639 427.86C139.252 427.86 139.745 428.02 140.119 428.34C140.492 428.647 140.679 429.067 140.679 429.6C140.679 430.12 140.492 430.54 140.119 430.86C139.745 431.167 139.252 431.32 138.639 431.32ZM149.358 444.3C147.945 444.3 146.705 444.053 145.638 443.56C144.571 443.053 143.738 442.353 143.138 441.46C142.538 440.553 142.238 439.507 142.238 438.32C142.238 437.12 142.538 436.073 143.138 435.18C143.738 434.273 144.571 433.573 145.638 433.08C146.705 432.573 147.945 432.32 149.358 432.32C150.771 432.32 152.011 432.573 153.078 433.08C154.145 433.573 154.971 434.273 155.558 435.18C156.158 436.073 156.458 437.12 156.458 438.32C156.458 439.507 156.158 440.553 155.558 441.46C154.971 442.353 154.145 443.053 153.078 443.56C152.011 444.053 150.771 444.3 149.358 444.3ZM149.358 441.76C150.131 441.76 150.791 441.62 151.338 441.34C151.898 441.06 152.325 440.667 152.618 440.16C152.925 439.64 153.078 439.027 153.078 438.32C153.078 437.6 152.925 436.987 152.618 436.48C152.325 435.96 151.898 435.56 151.338 435.28C150.791 435 150.131 434.86 149.358 434.86C148.598 434.86 147.938 435 147.378 435.28C146.818 435.56 146.385 435.96 146.078 436.48C145.785 436.987 145.638 437.6 145.638 438.32C145.638 439.027 145.785 439.64 146.078 440.16C146.385 440.667 146.818 441.06 147.378 441.34C147.938 441.62 148.598 441.76 149.358 441.76ZM158.405 432.5L160.065 432.82L161.745 432.5V444H158.405V432.5ZM160.065 431.32C159.465 431.32 158.971 431.167 158.585 430.86C158.211 430.54 158.025 430.12 158.025 429.6C158.025 429.067 158.211 428.647 158.585 428.34C158.971 428.02 159.465 427.86 160.065 427.86C160.678 427.86 161.171 428.02 161.545 428.34C161.918 428.647 162.105 429.067 162.105 429.6C162.105 430.12 161.918 430.54 161.545 430.86C161.171 431.167 160.678 431.32 160.065 431.32ZM163.724 432.62H167.064L167.784 436.96V444H164.444V436.46L163.724 432.62ZM172.124 432.32C173.204 432.32 174.124 432.54 174.884 432.98C175.644 433.407 176.224 434.02 176.624 434.82C177.024 435.62 177.224 436.573 177.224 437.68V444H173.884V438.18C173.884 437.153 173.637 436.38 173.144 435.86C172.651 435.327 171.931 435.06 170.984 435.06C170.344 435.06 169.777 435.207 169.284 435.5C168.804 435.78 168.431 436.173 168.164 436.68C167.911 437.187 167.784 437.793 167.784 438.5L166.684 437.92C166.817 436.72 167.137 435.707 167.644 434.88C168.151 434.053 168.791 433.42 169.564 432.98C170.337 432.54 171.191 432.32 172.124 432.32ZM184.154 432.62H187.494L188.214 436.96V444H184.874V436.46L184.154 432.62ZM192.554 432.32C193.634 432.32 194.554 432.54 195.314 432.98C196.074 433.407 196.654 434.02 197.054 434.82C197.454 435.62 197.654 436.573 197.654 437.68V444H194.314V438.18C194.314 437.153 194.067 436.38 193.574 435.86C193.08 435.327 192.36 435.06 191.414 435.06C190.774 435.06 190.207 435.207 189.714 435.5C189.234 435.78 188.86 436.173 188.594 436.68C188.34 437.187 188.214 437.793 188.214 438.5L187.114 437.92C187.247 436.72 187.567 435.707 188.074 434.88C188.58 434.053 189.22 433.42 189.994 432.98C190.767 432.54 191.62 432.32 192.554 432.32ZM206.526 444.3C205.113 444.3 203.873 444.053 202.806 443.56C201.739 443.053 200.906 442.353 200.306 441.46C199.706 440.553 199.406 439.507 199.406 438.32C199.406 437.12 199.706 436.073 200.306 435.18C200.906 434.273 201.739 433.573 202.806 433.08C203.873 432.573 205.113 432.32 206.526 432.32C207.939 432.32 209.179 432.573 210.246 433.08C211.313 433.573 212.139 434.273 212.726 435.18C213.326 436.073 213.626 437.12 213.626 438.32C213.626 439.507 213.326 440.553 212.726 441.46C212.139 442.353 211.313 443.053 210.246 443.56C209.179 444.053 207.939 444.3 206.526 444.3ZM206.526 441.76C207.299 441.76 207.959 441.62 208.506 441.34C209.066 441.06 209.493 440.667 209.786 440.16C210.093 439.64 210.246 439.027 210.246 438.32C210.246 437.6 210.093 436.987 209.786 436.48C209.493 435.96 209.066 435.56 208.506 435.28C207.959 435 207.299 434.86 206.526 434.86C205.766 434.86 205.106 435 204.546 435.28C203.986 435.56 203.553 435.96 203.246 436.48C202.953 436.987 202.806 437.6 202.806 438.32C202.806 439.027 202.953 439.64 203.246 440.16C203.553 440.667 203.986 441.06 204.546 441.34C205.106 441.62 205.766 441.76 206.526 441.76ZM230.284 442.18H229.184L232.744 432.62H236.084L231.684 444H228.264L224.464 434.18H225.664L221.804 444H218.384L213.984 432.62H217.364L220.944 442.18H219.804L223.444 432.62H226.704L230.284 442.18ZM237.526 429H241.006L240.446 439.06H238.086L237.526 429ZM239.266 444.18C238.693 444.18 238.226 444.013 237.866 443.68C237.506 443.333 237.326 442.893 237.326 442.36C237.326 441.813 237.506 441.373 237.866 441.04C238.226 440.693 238.693 440.52 239.266 440.52C239.839 440.52 240.306 440.693 240.666 441.04C241.026 441.373 241.206 441.813 241.206 442.36C241.206 442.893 241.026 443.333 240.666 443.68C240.306 444.013 239.839 444.18 239.266 444.18Z" fill="white" fill-opacity="0.92"/>
</svg>
