<svg width="655" height="636" viewBox="0 0 655 636" fill="none" xmlns="http://www.w3.org/2000/svg">
<path d="M353.865 215H310.801L280.962 293.762H325.402L353.865 215Z" fill="black" fill-opacity="0.16"/>
<path d="M277.415 423L299.745 363.247L312.668 328.81H267.684L232 423H277.415Z" fill="black" fill-opacity="0.16"/>
<path d="M429.557 423H478L442.316 328.81H394.304L407.228 363.247L429.557 423Z" fill="black" fill-opacity="0.16"/>
<path d="M399.199 215H353.865L381.78 293.762H429.038L399.199 215Z" fill="black" fill-opacity="0.16"/>
<path d="M507 316.5C507 228.963 436.037 158 348.5 158C260.963 158 190 228.963 190 316.5C190 357.741 205.751 395.304 231.566 423.5L217 452.948C181.243 418.48 159 370.087 159 316.5C159 211.842 243.842 127 348.5 127C453.158 127 538 211.842 538 316.5C538 397.003 487.802 465.781 417 493.241V459.474C470.241 433.92 507 379.503 507 316.5Z" fill="black" fill-opacity="0.16"/>
<path d="M618.552 327.055C618.552 166.53 488.243 36.3989 327.5 36.3989C166.757 36.3989 36.4484 166.53 36.4484 327.055C36.4484 422.578 81.5921 506.34 152.834 559.321L135.074 591.729C53.2148 532.275 0 435.871 0 327.055C0 146.427 146.627 0 327.5 0C508.373 0 655 146.427 655 327.055C655 469.989 563.184 591.508 435.237 636V597.147C542.646 554.382 618.552 449.57 618.552 327.055Z" fill="black" fill-opacity="0.16"/>
</svg>
