<svg width="151" height="61" viewBox="0 0 151 61" fill="none" xmlns="http://www.w3.org/2000/svg">
<path fill-rule="evenodd" clip-rule="evenodd" d="M-1.30353e-06 45L-5.64525e-07 54.0709C3.82765 54.071 6.93078 57.1728 6.93304 61L100.001 61C100 60.9657 100 60.9313 100 60.8969C100 57.6384 102.642 54.9969 105.9 54.9969C105.92 54.9969 105.94 54.997 105.96 54.9972C105.973 54.9973 105.987 54.9975 106 54.9977L106 54.4273C105.724 54.4273 105.5 54.2034 105.5 53.9273L105.5 51.8909C105.5 51.6148 105.724 51.3909 106 51.3909L106 49.3364C105.724 49.3364 105.5 49.1125 105.5 48.8364L105.5 46.8C105.5 46.5239 105.724 46.3 106 46.3L106 44.2455C105.724 44.2455 105.5 44.0216 105.5 43.7455L105.5 41.7091C105.5 41.4329 105.724 41.2091 106 41.2091L106 39.1545C105.724 39.1545 105.5 38.9307 105.5 38.6545L105.5 36.6182C105.5 36.342 105.724 36.1182 106 36.1182L106 34.0636C105.724 34.0636 105.5 33.8398 105.5 33.5636L105.5 31.5273C105.5 31.2511 105.724 31.0273 106 31.0273L106 28.9727C105.724 28.9727 105.5 28.7489 105.5 28.4727L105.5 26.4364C105.5 26.1602 105.724 25.9364 106 25.9364L106 23.8818C105.724 23.8818 105.5 23.658 105.5 23.3818L105.5 21.3454C105.5 21.0693 105.724 20.8454 106 20.8454L106 18.7909C105.724 18.7909 105.5 18.567 105.5 18.2909L105.5 16.2545C105.5 15.9784 105.724 15.7545 106 15.7545L106 13.7C105.724 13.7 105.5 13.4761 105.5 13.2L105.5 11.1636C105.5 10.8875 105.724 10.6636 106 10.6636L106 8.60908C105.724 8.60908 105.5 8.38522 105.5 8.10908L105.5 6.07272C105.5 5.96849 105.532 5.87172 105.586 5.79162C102.507 5.63035 100.053 3.1075 100.001 1.46945e-06L6.80428 3.65512e-06C6.8454 0.305435 6.86664 0.617172 6.86664 0.933868C6.86664 4.74078 3.79846 7.83109 -4.32882e-06 7.86687L-3.57646e-06 17.1015C1.62704 17.1036 2.94537 18.4232 2.94537 20.0508C2.94537 21.6783 1.62704 22.9979 -3.0959e-06 23L-2.68028e-06 28.1015C1.62704 28.1036 2.94537 29.4232 2.94537 31.0508C2.94537 32.6783 1.62704 33.9979 -2.19972e-06 34L-1.78409e-06 39.1015C1.62704 39.1036 2.94537 40.4232 2.94537 42.0508C2.94537 43.6783 1.62704 44.9979 -1.30353e-06 45Z" fill="#FF6500"/>
<path fill-rule="evenodd" clip-rule="evenodd" d="M-1.30353e-06 45L-5.64525e-07 54.0709C3.82765 54.071 6.93078 57.1728 6.93304 61L100.001 61C100 60.9657 100 60.9313 100 60.8969C100 57.6384 102.642 54.9969 105.9 54.9969C105.92 54.9969 105.94 54.997 105.96 54.9972C105.973 54.9973 105.987 54.9975 106 54.9977L106 54.4273C105.724 54.4273 105.5 54.2034 105.5 53.9273L105.5 51.8909C105.5 51.6148 105.724 51.3909 106 51.3909L106 49.3364C105.724 49.3364 105.5 49.1125 105.5 48.8364L105.5 46.8C105.5 46.5239 105.724 46.3 106 46.3L106 44.2455C105.724 44.2455 105.5 44.0216 105.5 43.7455L105.5 41.7091C105.5 41.4329 105.724 41.2091 106 41.2091L106 39.1545C105.724 39.1545 105.5 38.9307 105.5 38.6545L105.5 36.6182C105.5 36.342 105.724 36.1182 106 36.1182L106 34.0636C105.724 34.0636 105.5 33.8398 105.5 33.5636L105.5 31.5273C105.5 31.2511 105.724 31.0273 106 31.0273L106 28.9727C105.724 28.9727 105.5 28.7489 105.5 28.4727L105.5 26.4364C105.5 26.1602 105.724 25.9364 106 25.9364L106 23.8818C105.724 23.8818 105.5 23.658 105.5 23.3818L105.5 21.3454C105.5 21.0693 105.724 20.8454 106 20.8454L106 18.7909C105.724 18.7909 105.5 18.567 105.5 18.2909L105.5 16.2545C105.5 15.9784 105.724 15.7545 106 15.7545L106 13.7C105.724 13.7 105.5 13.4761 105.5 13.2L105.5 11.1636C105.5 10.8875 105.724 10.6636 106 10.6636L106 8.60908C105.724 8.60908 105.5 8.38522 105.5 8.10908L105.5 6.07272C105.5 5.96849 105.532 5.87172 105.586 5.79162C102.507 5.63035 100.053 3.1075 100.001 1.46945e-06L6.80428 3.65512e-06C6.8454 0.305435 6.86664 0.617172 6.86664 0.933868C6.86664 4.74078 3.79846 7.83109 -4.32882e-06 7.86687L-3.57646e-06 17.1015C1.62704 17.1036 2.94537 18.4232 2.94537 20.0508C2.94537 21.6783 1.62704 22.9979 -3.0959e-06 23L-2.68028e-06 28.1015C1.62704 28.1036 2.94537 29.4232 2.94537 31.0508C2.94537 32.6783 1.62704 33.9979 -2.19972e-06 34L-1.78409e-06 39.1015C1.62704 39.1036 2.94537 40.4232 2.94537 42.0508C2.94537 43.6783 1.62704 44.9979 -1.30353e-06 45Z" fill="url(#paint0_linear_5400_58907)"/>
<path fill-rule="evenodd" clip-rule="evenodd" d="M144.071 61L111.799 61C111.8 60.9667 111.8 60.9333 111.8 60.8998C111.8 57.6747 109.212 55.054 106 55.0006L106 54.4273C106.276 54.4273 106.5 54.2034 106.5 53.9273L106.5 51.8909C106.5 51.6148 106.276 51.3909 106 51.3909L106 49.3364C106.276 49.3364 106.5 49.1125 106.5 48.8364L106.5 46.8C106.5 46.5239 106.276 46.3 106 46.3L106 44.2455C106.276 44.2455 106.5 44.0216 106.5 43.7455L106.5 41.7091C106.5 41.4329 106.276 41.2091 106 41.2091L106 39.1545C106.276 39.1545 106.5 38.9307 106.5 38.6545L106.5 36.6182C106.5 36.342 106.276 36.1182 106 36.1182L106 34.0636C106.276 34.0636 106.5 33.8398 106.5 33.5636L106.5 31.5273C106.5 31.2511 106.276 31.0273 106 31.0273L106 28.9727C106.276 28.9727 106.5 28.7489 106.5 28.4727L106.5 26.4364C106.5 26.1602 106.276 25.9364 106 25.9364L106 23.8818C106.276 23.8818 106.5 23.658 106.5 23.3818L106.5 21.3454C106.5 21.0693 106.276 20.8454 106 20.8454L106 18.7909C106.276 18.7909 106.5 18.567 106.5 18.2909L106.5 16.2545C106.5 15.9784 106.276 15.7545 106 15.7545L106 13.7C106.276 13.7 106.5 13.4761 106.5 13.2L106.5 11.1636C106.5 10.8875 106.276 10.6636 106 10.6636L106 8.60908C106.276 8.60908 106.5 8.38522 106.5 8.10908L106.5 6.07272C106.5 5.96276 106.465 5.8611 106.404 5.77855C109.394 5.52546 111.748 3.04304 111.799 -1.36004e-07L144 -8.91194e-07C144.036 3.79871 147.126 6.86719 150.933 6.86719L150.958 6.86714L151 6.86687L151 17.1019C150.983 17.1016 150.966 17.1015 150.949 17.1015C149.32 17.1015 148 18.4219 148 20.0507C148 21.6796 149.32 23 150.949 23C150.966 23 150.983 22.9999 151 22.9996L151 28.1019L150.981 28.1017L150.949 28.1015C149.32 28.1015 148 29.4219 148 31.0508C148 32.6796 149.32 34 150.949 34C150.966 34 150.983 33.9999 151 33.9996L151 39.1019C150.983 39.1016 150.966 39.1015 150.949 39.1015C149.32 39.1015 148 40.4219 148 42.0508C148 43.6796 149.32 45 150.949 45L150.98 44.9998L151 44.9996L151 53.0712L150.952 53.0709L150.933 53.0709C147.104 53.0709 144 56.175 144 60.0042C144 60.3423 144.024 60.6748 144.071 61Z" fill="#FF6500"/>
<path fill-rule="evenodd" clip-rule="evenodd" d="M144.071 61L111.799 61C111.8 60.9667 111.8 60.9333 111.8 60.8998C111.8 57.6747 109.212 55.054 106 55.0006L106 54.4273C106.276 54.4273 106.5 54.2034 106.5 53.9273L106.5 51.8909C106.5 51.6148 106.276 51.3909 106 51.3909L106 49.3364C106.276 49.3364 106.5 49.1125 106.5 48.8364L106.5 46.8C106.5 46.5239 106.276 46.3 106 46.3L106 44.2455C106.276 44.2455 106.5 44.0216 106.5 43.7455L106.5 41.7091C106.5 41.4329 106.276 41.2091 106 41.2091L106 39.1545C106.276 39.1545 106.5 38.9307 106.5 38.6545L106.5 36.6182C106.5 36.342 106.276 36.1182 106 36.1182L106 34.0636C106.276 34.0636 106.5 33.8398 106.5 33.5636L106.5 31.5273C106.5 31.2511 106.276 31.0273 106 31.0273L106 28.9727C106.276 28.9727 106.5 28.7489 106.5 28.4727L106.5 26.4364C106.5 26.1602 106.276 25.9364 106 25.9364L106 23.8818C106.276 23.8818 106.5 23.658 106.5 23.3818L106.5 21.3454C106.5 21.0693 106.276 20.8454 106 20.8454L106 18.7909C106.276 18.7909 106.5 18.567 106.5 18.2909L106.5 16.2545C106.5 15.9784 106.276 15.7545 106 15.7545L106 13.7C106.276 13.7 106.5 13.4761 106.5 13.2L106.5 11.1636C106.5 10.8875 106.276 10.6636 106 10.6636L106 8.60908C106.276 8.60908 106.5 8.38522 106.5 8.10908L106.5 6.07272C106.5 5.96276 106.465 5.8611 106.404 5.77855C109.394 5.52546 111.748 3.04304 111.799 -1.36004e-07L144 -8.91194e-07C144.036 3.79871 147.126 6.86719 150.933 6.86719L150.958 6.86714L151 6.86687L151 17.1019C150.983 17.1016 150.966 17.1015 150.949 17.1015C149.32 17.1015 148 18.4219 148 20.0507C148 21.6796 149.32 23 150.949 23C150.966 23 150.983 22.9999 151 22.9996L151 28.1019L150.981 28.1017L150.949 28.1015C149.32 28.1015 148 29.4219 148 31.0508C148 32.6796 149.32 34 150.949 34C150.966 34 150.983 33.9999 151 33.9996L151 39.1019C150.983 39.1016 150.966 39.1015 150.949 39.1015C149.32 39.1015 148 40.4219 148 42.0508C148 43.6796 149.32 45 150.949 45L150.98 44.9998L151 44.9996L151 53.0712L150.952 53.0709L150.933 53.0709C147.104 53.0709 144 56.175 144 60.0042C144 60.3423 144.024 60.6748 144.071 61Z" fill="url(#paint1_linear_5400_58907)" fill-opacity="0.24"/>
<mask id="path-3-inside-1_5400_58907" fill="white">
<path fill-rule="evenodd" clip-rule="evenodd" d="M8 14C11.866 14 15 10.866 15 7H91C91 10.866 94.134 14 98 14V47C94.134 47 91 50.134 91 54H15C15 50.134 11.866 47 8 47V14Z"/>
</mask>
<path d="M15 7V6H14V7H15ZM8 14V13H7V14H8ZM91 7H92V6H91V7ZM98 14H99V13H98V14ZM98 47V48H99V47H98ZM91 54V55H92V54H91ZM15 54H14V55H15V54ZM8 47H7V48H8V47ZM14 7C14 10.3137 11.3137 13 8 13V15C12.4183 15 16 11.4183 16 7H14ZM91 6H15V8H91V6ZM98 13C94.6863 13 92 10.3137 92 7H90C90 11.4183 93.5817 15 98 15V13ZM99 47V14H97V47H99ZM92 54C92 50.6863 94.6863 48 98 48V46C93.5817 46 90 49.5817 90 54H92ZM15 55H91V53H15V55ZM8 48C11.3137 48 14 50.6863 14 54H16C16 49.5817 12.4183 46 8 46V48ZM7 14V47H9V14H7Z" fill="#FEEC97" fill-opacity="0.57" mask="url(#path-3-inside-1_5400_58907)"/>
<path d="M33.377 25.2H40.027V26.656H35.057V28.896H37.087C37.7403 28.896 38.3097 28.9707 38.795 29.12C39.2803 29.26 39.6817 29.4653 39.999 29.736C40.3163 29.9973 40.5497 30.3193 40.699 30.702C40.8577 31.0753 40.937 31.4907 40.937 31.948C40.937 32.4053 40.8577 32.8253 40.699 33.208C40.5497 33.5813 40.3163 33.9033 39.999 34.174C39.6817 34.4353 39.2803 34.6407 38.795 34.79C38.3097 34.93 37.7403 35 37.087 35H33.377V25.2ZM36.947 33.544C37.3857 33.544 37.7543 33.5113 38.053 33.446C38.3517 33.3713 38.5897 33.2687 38.767 33.138C38.9443 33.0073 39.0703 32.844 39.145 32.648C39.2197 32.4427 39.257 32.2047 39.257 31.934C39.257 31.6727 39.2197 31.444 39.145 31.248C39.0703 31.052 38.9443 30.8887 38.767 30.758C38.5897 30.6273 38.3517 30.5293 38.053 30.464C37.7543 30.3893 37.3857 30.352 36.947 30.352H35.057V33.544H36.947ZM42.8759 27.58H44.4159V32.83L47.9859 27.58H49.4559V35H47.9159V29.75L44.3459 35H42.8759V27.58ZM51.6808 35.154C51.6062 35.154 51.5222 35.1493 51.4288 35.14C51.3448 35.14 51.2655 35.1307 51.1908 35.112V33.656C51.2375 33.6653 51.3075 33.67 51.4008 33.67C51.5968 33.67 51.7648 33.614 51.9048 33.502C52.0448 33.3807 52.1568 33.1753 52.2408 32.886C52.3342 32.5873 52.4042 32.1907 52.4508 31.696C52.4975 31.2013 52.5208 30.576 52.5208 29.82V27.58H58.1208V35H56.5808V28.896H54.0048V30.1C54.0048 31.0987 53.9535 31.9247 53.8508 32.578C53.7575 33.222 53.6128 33.7353 53.4168 34.118C53.2208 34.5007 52.9782 34.7713 52.6888 34.93C52.3995 35.0793 52.0635 35.154 51.6808 35.154ZM63.6986 35.154C63.204 35.154 62.7373 35.0793 62.2986 34.93C61.86 34.7713 61.4726 34.538 61.1366 34.23C60.81 33.9127 60.5486 33.516 60.3526 33.04C60.1566 32.564 60.0586 32.004 60.0586 31.36V31.08C60.0586 30.464 60.152 29.9273 60.3386 29.47C60.5253 29.0127 60.7773 28.6347 61.0946 28.336C61.4213 28.028 61.7946 27.7993 62.2146 27.65C62.6346 27.5007 63.0826 27.426 63.5586 27.426C64.688 27.426 65.5513 27.7293 66.1486 28.336C66.7553 28.9427 67.0586 29.8107 67.0586 30.94V31.724H61.6266C61.636 32.1067 61.6966 32.4333 61.8086 32.704C61.93 32.9653 62.084 33.18 62.2706 33.348C62.4666 33.5067 62.686 33.6233 62.9286 33.698C63.1806 33.7727 63.4373 33.81 63.6986 33.81C64.2306 33.81 64.618 33.726 64.8606 33.558C65.1126 33.39 65.2853 33.1707 65.3786 32.9H66.9186C66.7693 33.6373 66.4006 34.1973 65.8126 34.58C65.234 34.9627 64.5293 35.154 63.6986 35.154ZM63.6286 28.77C63.3673 28.77 63.1153 28.8027 62.8726 28.868C62.6393 28.9333 62.4293 29.0407 62.2426 29.19C62.0653 29.33 61.9206 29.5167 61.8086 29.75C61.6966 29.974 61.636 30.2493 61.6266 30.576H65.5186C65.5093 30.2307 65.4533 29.9413 65.3506 29.708C65.2573 29.4747 65.1266 29.288 64.9586 29.148C64.7906 29.008 64.59 28.91 64.3566 28.854C64.1326 28.798 63.89 28.77 63.6286 28.77ZM70.613 28.896H68.163V27.58H74.603V28.896H72.153V35H70.613V28.896Z" fill="white" fill-opacity="0.64"/>
<path d="M87.2835 25.5456C87.5769 24.951 88.4248 24.951 88.7182 25.5456L89.83 27.7982L92.3159 28.1594C92.9721 28.2547 93.2341 29.0611 92.7592 29.5239L90.9604 31.2774L91.3851 33.7532C91.4972 34.4067 90.8112 34.9051 90.2243 34.5966L88.0009 33.4276L85.7774 34.5966C85.1905 34.9051 84.5045 34.4067 84.6166 33.7532L85.0413 31.2774L83.2425 29.5239C82.7677 29.0611 83.0297 28.2547 83.6858 28.1594L86.1717 27.7982L87.2835 25.5456Z" fill="#FEEC97"/>
<path d="M17.2835 25.5456C17.5769 24.951 18.4248 24.951 18.7182 25.5456L19.83 27.7982L22.3159 28.1594C22.9721 28.2547 23.2341 29.0611 22.7592 29.5239L20.9604 31.2774L21.3851 33.7532C21.4972 34.4067 20.8112 34.9051 20.2243 34.5966L18.0009 33.4276L15.7774 34.5966C15.1905 34.9051 14.5045 34.4067 14.6166 33.7532L15.0413 31.2774L13.2425 29.5239C12.7677 29.0611 13.0297 28.2547 13.6858 28.1594L16.1717 27.7982L17.2835 25.5456Z" fill="#FEEC97"/>
<defs>
<linearGradient id="paint0_linear_5400_58907" x1="27.31" y1="12.0001" x2="98.1752" y2="29.4654" gradientUnits="userSpaceOnUse">
<stop stop-color="#FF7C26"/>
<stop offset="0.871069" stop-color="#FF6500"/>
</linearGradient>
<linearGradient id="paint1_linear_5400_58907" x1="95.5907" y1="32.5001" x2="131.322" y2="47.1768" gradientUnits="userSpaceOnUse">
<stop stop-color="white" stop-opacity="0.89"/>
<stop offset="1" stop-color="white" stop-opacity="0"/>
</linearGradient>
</defs>
</svg>
